<svg xmlns="http://www.w3.org/2000/svg" xmlns:xlink="http://www.w3.org/1999/xlink" version="1.1" x="0px" y="0px" viewBox="0 0 64 64" style="enable-background:new 0 0 64 64;" xml:space="preserve">
    <g>
        <path d="M58,13h-1.508C54.754,10.82,46.14,1,32,1S9.246,10.82,7.508,13H6c-2.757,0-5,2.243-5,5v32c0,2.757,2.243,5,5,5h14v6h-6v2   h36v-2h-6v-6h14c2.757,0,5-2.243,5-5V18C63,15.243,60.757,13,58,13z M61,18v29h-7v-4h-4.462c-0.449-1.988-1.222-3.857-2.305-5.576   l3.152-3.151l-5.657-5.657l-3.152,3.152c-1.718-1.083-3.587-1.856-5.576-2.306v-2.733C47.762,25.142,54.925,16.966,56.492,15H58   C59.654,15,61,16.346,61,18z M23,47c0-4.963,4.038-9,9-9s9,4.037,9,9H23z M32,36c-6.065,0-11,4.935-11,11h-9v-2h4.118l0.147-0.824   c0.408-2.288,1.286-4.411,2.608-6.31l0.479-0.687l-2.909-2.907l2.829-2.829l2.908,2.908l0.687-0.479   c1.897-1.322,4.02-2.2,6.309-2.608L30,31.118V27h4v4.118l0.824,0.146c2.289,0.408,4.412,1.286,6.309,2.608l0.687,0.479l2.909-2.908   l2.829,2.829l-2.909,2.907l0.479,0.687c1.323,1.898,2.2,4.021,2.608,6.31L47.882,45H52v2h-9C43,40.935,38.065,36,32,36z M32,3   c12.602,0,20.73,8.637,22.718,11C52.73,16.363,44.602,25,32,25S11.27,16.363,9.282,14C11.27,11.637,19.398,3,32,3z M6,15h1.508   C9.075,16.966,16.238,25.142,28,26.729v2.733c-1.988,0.449-3.857,1.223-5.576,2.306l-3.152-3.152l-5.657,5.657l3.152,3.151   c-1.083,1.719-1.856,3.588-2.305,5.576H10v4H3V18C3,16.346,4.346,15,6,15z M42,61H22v-6h20V61z M58,53H6c-1.654,0-3-1.346-3-3v-1   h58v1C61,51.654,59.654,53,58,53z" style="fill: #234B5F;"/>
        <rect x="31" y="43" width="2" height="2" style="fill: #E17854;"/>
        <rect x="35" y="43" width="2" height="2" style="fill: #E17854;"/>
        <rect x="27" y="43" width="2" height="2" style="fill: #E17854;"/>
        <path d="M32,23c4.962,0,9-4.037,9-9s-4.038-9-9-9s-9,4.037-9,9S27.038,23,32,23z M32,7c3.86,0,7,3.141,7,7s-3.14,7-7,7   s-7-3.141-7-7S28.14,7,32,7z" style="fill: #E17854;"/>
        <path d="M32,18c2.206,0,4-1.794,4-4s-1.794-4-4-4s-4,1.794-4,4S29.794,18,32,18z M32,12c1.103,0,2,0.897,2,2s-0.897,2-2,2   s-2-0.897-2-2S30.897,12,32,12z" style="fill: #E17854;"/>
        <!-- <rect x="44" y="13" width="2" height="2" style="fill: #E17854;"/>
        <rect x="42" y="8" width="2" height="2" style="fill: #E17854;"/>
        <rect x="42" y="18" width="2" height="2" style="fill: #E17854;"/>
        <rect x="18" y="13" width="2" height="2" style="fill: #E17854;"/>
        <rect x="20" y="8" width="2" height="2" style="fill: #E17854;"/>
        <rect x="20" y="18" width="2" height="2" style="fill: #E17854;"/> -->
    </g>
</svg>