<svg xmlns="http://www.w3.org/2000/svg" xmlns:xlink="http://www.w3.org/1999/xlink" viewBox="0 0 100 100" version="1.1" x="0px" y="0px">
    <title>Machine Learning - Cluster Analysis by Sasha is Sasha. Public Domain. 2017</title>
    <desc>sashaissasha.com</desc>
    <g stroke="none" stroke-width="1" fill="none" fill-rule="evenodd">
        <g fill="#000000">
            <path d="M72.8389102,86.5 L81.1610898,86.5 C81.84776,83.354818 84.6488814,81 88,81 C91.8659932,81 95,84.1340068 95,88 C95,91.8659932 91.8659932,95 88,95 C84.6488814,95 81.84776,92.645182 81.1610898,89.5 L72.8389102,89.5 C72.15224,92.645182 69.3511186,95 66,95 C62.1340068,95 59,91.8659932 59,88 C59,84.1340068 62.1340068,81 66,81 C69.3511186,81 72.15224,83.354818 72.8389102,86.5 Z M81.1610898,64.5 C81.84776,61.354818 84.6488814,59 88,59 C91.8659932,59 95,62.1340068 95,66 C95,69.8659932 91.8659932,73 88,73 C84.6488814,73 81.84776,70.645182 81.1610898,67.5 L72.8389102,67.5 C72.15224,70.645182 69.3511186,73 66,73 C62.1340068,73 59,69.8659932 59,66 C59,62.1340068 62.1340068,59 66,59 C69.3511186,59 72.15224,61.354818 72.8389102,64.5 L81.1610898,64.5 Z M66,70 C68.209139,70 70,68.209139 70,66 C70,63.790861 68.209139,62 66,62 C63.790861,62 62,63.790861 62,66 C62,68.209139 63.790861,70 66,70 Z M88,70 C90.209139,70 92,68.209139 92,66 C92,63.790861 90.209139,62 88,62 C85.790861,62 84,63.790861 84,66 C84,68.209139 85.790861,70 88,70 Z M88,92 C90.209139,92 92,90.209139 92,88 C92,85.790861 90.209139,84 88,84 C85.790861,84 84,85.790861 84,88 C84,90.209139 85.790861,92 88,92 Z M66,92 C68.209139,92 70,90.209139 70,88 C70,85.790861 68.209139,84 66,84 C63.790861,84 62,85.790861 62,88 C62,90.209139 63.790861,92 66,92 Z" style="fill: #234B5F;"></path>

            <path d="M81,21.5 L95,21.5 L95,24.5 L81,24.5 L81,21.5 Z M59,21.5 L73,21.5 L73,24.5 L59,24.5 L59,21.5 Z" style="fill: #E17854;"></path>

            <path d="M66,19 C62.1340068,19 59,15.8659932 59,12 C59,8.13400675 62.1340068,5 66,5 C69.8659932,5 73,8.13400675 73,12 C73,15.8659932 69.8659932,19 66,19 Z M88,19 C84.1340068,19 81,15.8659932 81,12 C81,8.13400675 84.1340068,5 88,5 C91.8659932,5 95,8.13400675 95,12 C95,15.8659932 91.8659932,19 88,19 Z M88,41 C84.1340068,41 81,37.8659932 81,34 C81,30.1340068 84.1340068,27 88,27 C91.8659932,27 95,30.1340068 95,34 C95,37.8659932 91.8659932,41 88,41 Z M66,41 C62.1340068,41 59,37.8659932 59,34 C59,30.1340068 62.1340068,27 66,27 C69.8659932,27 73,30.1340068 73,34 C73,37.8659932 69.8659932,41 66,41 Z M66,16 C68.209139,16 70,14.209139 70,12 C70,9.790861 68.209139,8 66,8 C63.790861,8 62,9.790861 62,12 C62,14.209139 63.790861,16 66,16 Z M88,16 C90.209139,16 92,14.209139 92,12 C92,9.790861 90.209139,8 88,8 C85.790861,8 84,9.790861 84,12 C84,14.209139 85.790861,16 88,16 Z M88,38 C90.209139,38 92,36.209139 92,34 C92,31.790861 90.209139,30 88,30 C85.790861,30 84,31.790861 84,34 C84,36.209139 85.790861,38 88,38 Z M66,38 C68.209139,38 70,36.209139 70,34 C70,31.790861 68.209139,30 66,30 C63.790861,30 62,31.790861 62,34 C62,36.209139 63.790861,38 66,38 Z" style="fill: #E17854;"></path>

            <path d="M21.5,59 L24.5,59 L24.5,73 L21.5,73 L21.5,59 Z M21.5,81 L24.5,81 L24.5,95 L21.5,95 L21.5,81 Z" style="fill: #E17854;"></path>

            <path d="M12,73 C8.13400675,73 5,69.8659932 5,66 C5,62.1340068 8.13400675,59 12,59 C15.8659932,59 19,62.1340068 19,66 C19,69.8659932 15.8659932,73 12,73 Z M34,73 C30.1340068,73 27,69.8659932 27,66 C27,62.1340068 30.1340068,59 34,59 C37.8659932,59 41,62.1340068 41,66 C41,69.8659932 37.8659932,73 34,73 Z M34,95 C30.1340068,95 27,91.8659932 27,88 C27,84.1340068 30.1340068,81 34,81 C37.8659932,81 41,84.1340068 41,88 C41,91.8659932 37.8659932,95 34,95 Z M12,95 C8.13400675,95 5,91.8659932 5,88 C5,84.1340068 8.13400675,81 12,81 C15.8659932,81 19,84.1340068 19,88 C19,91.8659932 15.8659932,95 12,95 Z M12,70 C14.209139,70 16,68.209139 16,66 C16,63.790861 14.209139,62 12,62 C9.790861,62 8,63.790861 8,66 C8,68.209139 9.790861,70 12,70 Z M34,70 C36.209139,70 38,68.209139 38,66 C38,63.790861 36.209139,62 34,62 C31.790861,62 30,63.790861 30,66 C30,68.209139 31.790861,70 34,70 Z M34,92 C36.209139,92 38,90.209139 38,88 C38,85.790861 36.209139,84 34,84 C31.790861,84 30,85.790861 30,88 C30,90.209139 31.790861,92 34,92 Z M12,92 C14.209139,92 16,90.209139 16,88 C16,85.790861 14.209139,84 12,84 C9.790861,84 8,85.790861 8,88 C8,90.209139 9.790861,92 12,92 Z" style="fill: #E17854;"></path>


            <path d="M13.5,27.1610898 C16.645182,27.84776 19,30.6488814 19,34 C19,37.8659932 15.8659932,41 12,41 C8.13400675,41 5,37.8659932 5,34 C5,30.6488814 7.35481799,27.84776 10.5,27.1610898 L10.5,18.8389102 C7.35481799,18.15224 5,15.3511186 5,12 C5,8.13400675 8.13400675,5 12,5 C15.8659932,5 19,8.13400675 19,12 C19,15.3511186 16.645182,18.15224 13.5,18.8389102 L13.5,27.1610898 Z M35.5,27.1610898 C38.645182,27.84776 41,30.6488814 41,34 C41,37.8659932 37.8659932,41 34,41 C30.1340068,41 27,37.8659932 27,34 C27,30.6488814 29.354818,27.84776 32.5,27.1610898 L32.5,18.8389102 C29.354818,18.15224 27,15.3511186 27,12 C27,8.13400675 30.1340068,5 34,5 C37.8659932,5 41,8.13400675 41,12 C41,15.3511186 38.645182,18.15224 35.5,18.8389102 L35.5,27.1610898 Z M12,16 C14.209139,16 16,14.209139 16,12 C16,9.790861 14.209139,8 12,8 C9.790861,8 8,9.790861 8,12 C8,14.209139 9.790861,16 12,16 Z M34,16 C36.209139,16 38,14.209139 38,12 C38,9.790861 36.209139,8 34,8 C31.790861,8 30,9.790861 30,12 C30,14.209139 31.790861,16 34,16 Z M34,38 C36.209139,38 38,36.209139 38,34 C38,31.790861 36.209139,30 34,30 C31.790861,30 30,31.790861 30,34 C30,36.209139 31.790861,38 34,38 Z M12,38 C14.209139,38 16,36.209139 16,34 C16,31.790861 14.209139,30 12,30 C9.790861,30 8,31.790861 8,34 C8,36.209139 9.790861,38 12,38 Z" style="fill: #234B5F;"></path>

        </g>
    </g>
</svg>