<svg xmlns="http://www.w3.org/2000/svg" xmlns:xlink="http://www.w3.org/1999/xlink" version="1.1" x="0px" y="0px" viewBox="0 0 68 68" style="enable-background:new 0 0 68 68;" xml:space="preserve">
    <style type="text/css">
	.st0{fill:#010101;}
</style>
    <g>
        <g>
            <path class="st0" d="M54.6,65h-4.2V34.8c0-0.6-0.4-1-1-1h-5.3c-0.6,0-1,0.4-1,1V65h-3.7V44.6c0-0.6-0.4-1-1-1H33c-0.6,0-1,0.4-1,1    V65h-3.7V39.9c0-0.6-0.4-1-1-1H22c-0.6,0-1,0.4-1,1V65h-3.9V48.1c0-0.6-0.4-1-1-1h-5.3c-0.6,0-1,0.4-1,1V65H3V11.6    c0-0.6-0.4-1-1-1c-0.6,0-1,0.4-1,1V66c0,0.6,0.4,1,1,1c57.5,0,43.7,0,52.6,0c0.6,0,1-0.4,1-1C55.6,65.4,55.1,65,54.6,65z M11.8,65    V49.1h3.3V65H11.8z M23,65V40.9h3.3V65H23z M34,65V45.6h3.3V65H34z M45.1,65V35.8h3.3V65H45.1z" style="fill: #234B5F;"/>
        </g>
        <g>
            <path class="st0" d="M66.4,41.4l-5.9-10.9c-0.3-0.5-0.9-0.7-1.3-0.4l-2.4,1.3l-1.7-3.1c6.7-4.1,9.1-12.6,5.2-19.4    c-4-7.1-12.8-9.9-20.1-6.1c-7.2,3.8-10,12.7-6.1,19.9c0.7,1.4,1.7,2.6,2.8,3.7l-1.6,2c-1.9-0.9-3.9-0.4-5.2,1l-4-2.1    c0.1-0.4,0.2-0.7,0.2-1.1c0-2.4-1.9-4.3-4.3-4.3c-2.4,0-4.3,1.9-4.3,4.3c0,1,0.4,2,1,2.7l-4.1,5.4c-0.5-0.2-1.1-0.4-1.8-0.4    c-2.4,0-4.3,1.9-4.3,4.3c0,2.4,1.9,4.3,4.3,4.3c2.4,0,4.3-1.9,4.3-4.3c0-1-0.4-2-1-2.7l4.1-5.4c1.8,0.8,3.8,0.3,5-1.1l4,2.1    c-0.1,0.3-0.2,0.7-0.2,1.1c0,2.4,1.9,4.3,4.3,4.3c2.4,0,4.3-1.9,4.3-4.3c0-1-0.3-1.9-0.9-2.6l1.6-2c4.1,3,9.6,3.9,14.8,1.5    l1.7,3.1l-2.4,1.3c-0.2,0.1-0.4,0.3-0.5,0.6c-0.1,0.3,0,0.5,0.1,0.8l5.9,10.9c1.2,2.3,4.1,3.1,6.4,1.9    C66.8,46.6,67.7,43.7,66.4,41.4z M12.8,40.5c-1.3,0-2.3-1-2.3-2.3c0-1.3,1-2.3,2.3-2.3s2.3,1.1,2.3,2.3    C15.1,39.5,14.1,40.5,12.8,40.5z M22,28.4c-1.3,0-2.3-1-2.3-2.3c0-1.3,1-2.3,2.3-2.3c1.3,0,2.3,1.1,2.3,2.3    C24.3,27.4,23.3,28.4,22,28.4z M33.4,34.5c-1.3,0-2.3-1.1-2.3-2.3s1-2.3,2.3-2.3c1.3,0,2.3,1,2.3,2.3S34.7,34.5,33.4,34.5z     M39.8,26.1l8.2-9.8l0.1,4.3c0,0.5,0.5,1,1,1c0,0,0,0,0,0c0.6,0,1-0.5,1-1l-0.2-6.9c0-0.6-0.7-1.1-1.2-1l-7.1,1.6    c-0.5,0.1-0.9,0.6-0.8,1.2c0.1,0.5,0.6,0.9,1.2,0.8l4.3-0.9l-8,9.6c-0.9-0.9-1.7-1.9-2.3-3.1c-3.3-6.2-1-13.9,5.3-17.2    c6.3-3.3,14-0.9,17.4,5.3c3.5,6.2,1.1,13.9-5.3,17.2C49,29.2,43.8,28.9,39.8,26.1z M63.6,46c-1.3,0.7-3,0.1-3.7-1.1l-5.4-10    l4.8-2.5l5.4,10C65.4,43.7,64.9,45.3,63.6,46z" style="fill: #E17854;"/>
        </g>
    </g>
</svg>