<?xml version="1.0" encoding="UTF-8" ?>
<!DOCTYPE svg PUBLIC "-//W3C//DTD SVG 1.1//EN" "http://www.w3.org/Graphics/SVG/1.1/DTD/svg11.dtd">
<svg width="1000pt" height="1000pt" viewBox="0 0 1000 1000" version="1.1" xmlns="http://www.w3.org/2000/svg">
<g id="#2b4b6eff">
<path fill="#2b4b6e" opacity="1.00" d=" M 329.56 54.36 C 417.61 18.76 516.80 12.35 609.02 34.56 C 681.73 52.47 749.49 88.32 807.08 135.95 C 832.87 157.34 857.00 180.85 878.02 206.98 C 880.53 209.77 884.63 209.04 887.99 209.17 C 901.77 209.32 916.03 207.97 929.23 212.84 C 957.79 222.15 978.82 250.86 978.31 281.02 C 978.33 448.03 978.35 615.04 978.30 782.05 C 978.66 811.44 958.34 839.13 930.94 849.04 C 922.07 852.53 912.45 853.44 903.00 853.35 C 831.96 853.34 760.92 853.35 689.88 853.35 C 687.22 853.46 683.96 853.93 682.54 856.50 C 681.57 858.50 681.45 860.78 681.44 862.97 C 681.51 892.64 681.39 922.32 681.50 951.99 C 681.45 955.60 683.96 959.38 687.93 959.08 C 717.02 959.24 746.11 959.10 775.20 959.15 C 775.19 965.55 775.14 971.96 775.23 978.37 C 591.74 978.33 408.26 978.34 224.77 978.37 C 224.85 971.96 224.81 965.55 224.80 959.15 C 253.89 959.10 282.99 959.24 312.08 959.08 C 316.05 959.37 318.55 955.59 318.50 951.98 C 318.60 923.99 318.51 896.00 318.54 868.00 C 318.42 864.16 319.07 860.09 317.45 856.48 C 316.01 853.92 312.74 853.46 310.08 853.35 C 237.39 853.30 164.70 853.44 92.01 853.28 C 62.94 853.26 35.76 833.00 25.94 805.91 C 22.72 797.66 21.63 788.75 21.68 779.95 C 21.69 613.62 21.66 447.30 21.69 280.98 C 21.34 257.45 34.05 234.49 53.48 221.45 C 60.84 216.47 69.12 212.84 77.78 210.82 C 91.02 207.92 104.64 209.77 118.04 208.97 C 120.33 208.81 122.06 207.12 123.38 205.39 C 131.33 195.08 140.39 185.73 149.19 176.17 C 200.25 123.97 261.62 81.45 329.56 54.36 M 471.56 41.80 C 405.62 46.16 341.04 66.24 283.37 98.32 C 247.99 117.97 214.93 141.82 184.98 169.02 C 169.18 183.18 154.35 198.42 140.68 214.64 C 138.30 217.54 139.49 221.60 141.76 224.17 C 153.65 238.25 166.79 251.21 180.04 264.01 C 219.79 300.79 264.94 331.95 314.10 354.82 C 353.94 373.30 396.42 386.16 439.91 392.39 C 487.75 399.21 536.76 397.85 584.13 388.25 C 621.86 380.73 658.55 368.19 693.16 351.42 C 752.19 322.57 805.49 282.25 849.77 233.78 C 852.93 229.94 856.70 226.60 859.48 222.44 C 861.15 219.87 861.02 216.37 858.90 214.09 C 845.29 198.11 830.65 183.00 815.00 168.99 C 759.92 119.10 694.43 79.90 622.92 58.83 C 574.00 44.30 522.50 38.32 471.56 41.80 M 54.21 246.10 C 45.33 256.15 40.63 269.64 40.86 283.01 C 40.86 431.00 40.87 578.99 40.86 726.98 C 40.95 730.21 40.49 733.54 41.43 736.69 C 42.45 739.77 46.18 740.36 48.99 740.44 C 83.99 740.43 119.00 740.44 154.01 740.44 C 156.45 740.31 159.38 740.05 160.98 737.95 C 162.47 735.58 162.24 732.63 162.30 729.95 C 162.25 712.61 162.28 695.26 162.28 677.92 C 182.87 677.96 203.45 677.93 224.04 677.94 C 227.35 678.15 231.07 676.45 231.77 672.93 C 238.54 643.87 249.81 615.79 265.59 590.44 C 266.84 588.28 268.21 585.71 267.45 583.17 C 266.97 580.77 265.05 579.14 263.43 577.49 C 249.31 563.56 235.48 549.31 221.23 535.50 C 248.09 509.06 274.55 482.22 301.28 455.65 C 315.40 469.89 329.65 484.01 343.79 498.25 C 345.76 500.15 348.08 502.49 351.09 502.12 C 354.78 501.28 357.76 498.76 361.02 496.97 C 383.85 483.66 408.55 473.48 434.25 467.26 C 436.39 466.72 438.58 466.25 440.59 465.30 C 443.10 463.85 443.41 460.56 443.54 457.95 C 443.54 445.28 443.54 432.61 443.54 419.93 C 443.41 417.31 443.03 414.03 440.47 412.64 C 436.86 411.09 432.85 411.06 429.04 410.36 C 346.25 397.64 268.05 360.98 202.52 309.23 C 173.27 286.18 146.25 260.21 122.61 231.41 C 120.65 228.71 117.09 228.30 114.01 228.33 C 107.01 228.38 100.01 228.30 93.02 228.38 C 78.39 228.71 63.93 235.11 54.21 246.10 M 878.99 229.87 C 875.75 232.69 873.52 236.41 870.56 239.49 C 847.08 266.98 820.37 291.63 791.77 313.72 C 728.48 362.28 653.83 396.92 574.87 409.76 C 569.97 410.72 564.88 410.81 560.12 412.37 C 557.05 413.49 556.54 417.23 556.46 420.07 C 556.45 432.38 556.49 444.68 556.44 456.99 C 556.45 459.38 556.62 461.97 557.98 464.03 C 559.25 465.80 561.58 466.08 563.54 466.68 C 591.90 473.35 619.13 484.70 643.95 499.96 C 645.77 500.97 647.65 502.16 649.81 502.19 C 652.46 501.92 654.44 500.01 656.24 498.24 C 670.37 484.02 684.61 469.91 698.73 455.68 C 725.49 482.20 751.89 509.10 778.78 535.48 C 764.20 549.67 749.99 564.25 735.52 578.55 C 733.75 580.18 732.30 582.33 732.29 584.83 C 732.53 587.37 733.85 589.61 735.19 591.72 C 750.57 616.74 761.58 644.35 768.23 672.93 C 768.93 676.46 772.66 678.16 775.99 677.94 C 796.56 677.93 817.14 677.96 837.72 677.92 C 837.73 695.96 837.72 714.00 837.72 732.04 C 837.81 734.44 837.90 737.38 840.03 738.96 C 841.77 740.07 843.89 740.37 845.93 740.44 C 880.95 740.44 915.96 740.43 950.97 740.44 C 953.79 740.37 957.57 739.77 958.58 736.66 C 959.44 733.84 959.07 730.85 959.15 727.96 C 959.11 578.98 959.18 430.01 959.12 281.03 C 959.11 259.39 944.78 238.45 924.11 231.56 C 912.22 227.06 899.38 228.63 886.98 228.32 C 884.28 228.36 881.29 228.28 878.99 229.87 M 464.56 417.50 C 462.76 419.52 462.77 422.46 462.70 425.02 C 462.76 443.79 462.70 462.56 462.73 481.32 C 421.11 487.48 381.08 503.88 347.29 528.99 C 333.52 515.29 319.83 501.51 306.07 487.81 C 303.51 484.85 298.50 485.15 295.96 487.98 C 281.69 502.33 267.29 516.56 253.07 530.96 C 250.16 533.52 250.59 538.13 253.49 540.52 C 267.20 554.18 280.79 567.98 294.62 581.53 C 282.23 598.73 271.39 617.12 263.48 636.83 C 255.45 656.12 250.32 676.49 246.86 697.06 C 228.23 697.05 209.60 697.08 190.98 697.04 C 188.30 697.02 185.30 697.31 183.31 699.31 C 181.29 701.30 181.52 704.39 181.44 707.00 C 181.58 715.94 181.26 724.89 181.58 733.82 C 181.50 737.93 185.15 740.74 189.09 740.40 C 234.39 740.50 279.70 740.38 325.01 740.46 C 327.76 740.42 331.06 740.24 332.94 737.94 C 334.56 735.27 334.09 731.98 334.29 729.01 C 334.95 698.14 345.03 667.74 362.24 642.18 C 384.29 609.10 418.59 584.44 456.99 574.11 C 481.09 567.67 506.62 566.99 531.14 571.38 C 566.75 578.08 599.80 597.13 623.83 624.20 C 647.74 651.07 663.00 685.82 665.32 721.81 C 665.87 726.51 665.41 731.29 666.21 735.96 C 666.83 739.53 670.95 740.44 674.02 740.44 C 717.65 740.44 761.29 740.43 804.93 740.44 C 808.46 740.35 812.24 740.90 815.55 739.33 C 818.35 737.65 818.50 733.92 818.56 731.01 C 818.39 721.70 818.79 712.38 818.36 703.09 C 818.20 698.89 813.73 696.87 810.04 697.06 C 791.07 697.05 772.11 697.07 753.14 697.06 C 749.39 674.42 743.43 652.07 734.10 631.07 C 726.56 613.48 716.50 597.08 705.40 581.53 C 719.21 567.98 732.82 554.20 746.51 540.53 C 749.39 538.14 749.85 533.58 746.98 531.00 C 732.74 516.56 718.30 502.30 703.99 487.92 C 701.43 485.10 696.43 484.89 693.90 487.85 C 680.22 501.52 666.55 515.21 652.87 528.88 C 635.84 516.86 617.85 506.09 598.51 498.22 C 578.92 489.97 558.20 484.71 537.27 481.23 C 537.25 461.83 537.33 442.43 537.24 423.04 C 537.49 419.38 535.03 415.65 531.05 415.93 C 511.38 415.73 491.70 415.94 472.03 415.83 C 469.50 415.90 466.58 415.70 464.56 417.50 M 482.58 588.81 C 442.76 593.53 405.23 615.23 381.74 647.79 C 363.86 672.04 353.95 701.94 353.37 732.04 C 353.38 734.91 354.14 738.59 357.18 739.72 C 360.67 740.84 364.40 740.34 368.01 740.44 C 458.01 740.44 548.01 740.43 638.02 740.44 C 639.87 740.37 641.83 740.25 643.53 739.40 C 645.77 738.14 646.39 735.33 646.60 732.98 C 646.30 690.67 626.69 648.83 593.98 621.93 C 563.53 596.18 522.15 583.92 482.58 588.81 M 44.36 760.40 C 41.16 761.38 40.78 765.17 40.85 768.00 C 41.04 776.33 40.20 784.81 42.30 792.97 C 45.73 809.04 57.35 822.99 72.37 829.56 C 80.13 832.83 88.57 834.46 96.99 834.15 C 366.35 834.14 635.71 834.16 905.07 834.14 C 915.20 834.18 925.46 831.57 934.06 826.14 C 943.88 820.10 951.63 810.73 955.64 799.93 C 960.02 788.81 959.26 776.66 958.97 764.98 C 958.85 760.93 954.42 759.41 951.01 759.56 C 652.34 759.57 353.67 759.56 55.01 759.56 C 51.46 759.67 47.75 759.07 44.36 760.40 M 343.44 853.59 C 341.29 854.05 338.91 855.14 338.27 857.45 C 337.45 860.21 337.77 863.14 337.71 865.99 C 337.73 893.00 337.74 920.00 337.71 947.01 C 337.77 950.32 337.33 953.96 339.09 956.95 C 340.69 959.08 343.65 959.08 346.07 959.16 C 449.07 959.12 552.07 959.18 655.07 959.13 C 659.26 959.68 662.61 956.21 662.23 952.06 C 662.34 922.02 662.23 891.98 662.29 861.93 C 662.21 859.50 662.16 856.52 659.95 854.98 C 656.72 852.77 652.64 853.41 648.97 853.34 C 560.96 853.36 472.96 853.34 384.95 853.35 C 371.12 853.52 357.24 853.01 343.44 853.59 Z" />
</g>
<g id="#e17854ff">
<path fill="#e17854" opacity="1.00" d=" M 491.37 84.46 C 514.85 82.96 538.81 87.44 559.80 98.21 C 597.97 117.00 626.25 154.81 632.85 196.92 C 636.65 221.60 634.16 247.48 624.24 270.51 C 611.46 301.19 586.93 326.80 556.74 340.75 C 533.89 351.83 507.75 355.28 482.65 352.22 C 441.03 347.18 402.85 320.97 382.54 284.38 C 369.39 261.40 363.71 234.44 365.86 208.09 C 368.51 167.63 391.48 129.56 425.00 107.08 C 444.60 93.84 467.71 85.74 491.37 84.46 M 483.43 104.59 C 459.00 108.26 435.66 119.66 418.36 137.38 C 397.69 157.64 385.69 186.14 384.68 214.98 C 383.44 250.27 399.35 285.85 426.95 307.98 C 443.66 321.88 464.52 330.45 486.02 333.25 C 507.42 336.01 529.52 332.19 549.04 323.11 C 580.31 308.74 604.23 279.48 612.01 245.95 C 621.62 208.49 610.21 166.52 583.16 138.92 C 558.08 112.26 519.60 99.09 483.43 104.59 Z" />
<path fill="#e17854" opacity="1.00" d=" M 492.53 162.76 C 504.52 161.25 517.09 163.31 527.57 169.48 C 541.93 177.46 552.35 192.01 555.52 208.10 C 557.28 218.84 556.62 230.22 552.24 240.29 C 545.16 257.00 529.88 270.16 512.06 274.00 C 503.84 275.61 495.25 275.60 487.06 273.81 C 467.41 269.11 450.94 253.27 445.47 233.83 C 443.45 226.42 443.16 218.59 444.04 210.98 C 447.12 186.55 468.01 165.59 492.53 162.76 M 493.20 182.21 C 488.14 183.23 483.14 184.95 478.95 188.02 C 465.75 196.74 459.56 214.59 464.45 229.62 C 469.43 247.68 489.80 259.66 507.99 255.01 C 520.88 252.46 531.87 242.25 535.53 229.66 C 540.00 215.95 535.27 199.91 524.39 190.55 C 515.93 183.34 504.13 179.98 493.20 182.21 Z" />
<path fill="#e17854" opacity="1.00" d=" M 427.97 677.97 C 434.32 677.95 440.68 677.96 447.03 677.97 C 447.04 684.32 447.04 690.67 447.03 697.03 C 440.68 697.05 434.32 697.04 427.96 697.03 C 427.96 690.68 427.95 684.32 427.97 677.97 Z" />
<path fill="#e17854" opacity="1.00" d=" M 490.42 677.97 C 496.80 677.95 503.19 677.96 509.58 677.97 C 509.59 684.32 509.59 690.67 509.59 697.03 C 503.19 697.04 496.80 697.04 490.41 697.04 C 490.41 690.68 490.40 684.32 490.42 677.97 Z" />
<path fill="#e17854" opacity="1.00" d=" M 552.97 677.97 C 559.32 677.95 565.67 677.95 572.03 677.97 C 572.04 684.32 572.04 690.67 572.03 697.03 C 565.67 697.04 559.32 697.04 552.97 697.03 C 552.95 690.67 552.96 684.32 552.97 677.97 Z" />
</g>
</svg>
