<?xml version="1.0" encoding="UTF-8" ?>
<!DOCTYPE svg PUBLIC "-//W3C//DTD SVG 1.1//EN" "http://www.w3.org/Graphics/SVG/1.1/DTD/svg11.dtd">
<svg width="1000pt" height="1000pt" viewBox="0 0 1000 1000" version="1.1" xmlns="http://www.w3.org/2000/svg">
<g id="#2b4b6eff">
<path fill="#2b4b6e" opacity="1.00" d=" M 109.66 56.82 C 120.93 55.11 132.73 56.09 143.35 60.35 C 162.71 68.00 177.98 85.50 182.49 105.88 C 184.60 115.80 184.40 126.17 182.02 136.01 C 176.15 158.74 156.99 177.43 134.05 182.53 C 130.14 183.13 128.89 187.52 128.98 190.93 C 129.03 217.30 128.96 243.67 129.01 270.04 C 129.06 273.18 130.52 276.93 134.02 277.45 C 159.01 282.97 179.65 304.78 183.22 330.19 C 185.08 342.86 183.46 356.17 177.71 367.67 C 169.50 384.63 153.58 397.78 135.23 402.24 C 124.97 404.60 114.16 404.56 103.93 402.03 C 84.18 396.93 67.43 381.78 60.12 362.77 C 51.35 340.09 56.79 312.40 74.39 295.40 C 82.79 286.35 94.09 280.27 106.06 277.43 C 109.96 276.79 111.10 272.39 111.02 269.02 C 110.97 242.66 111.04 216.29 110.99 189.92 C 110.96 186.55 109.22 182.83 105.50 182.38 C 81.78 176.98 62.16 156.93 57.31 133.09 C 54.84 120.10 55.86 106.24 61.42 94.14 C 70.04 74.83 88.62 59.98 109.66 56.82 M 112.46 74.69 C 101.17 76.51 90.64 82.69 83.67 91.78 C 75.24 102.70 71.81 117.62 75.46 131.01 C 77.46 140.04 82.61 148.25 89.45 154.41 C 100.58 164.17 116.65 168.47 131.04 164.52 C 140.56 162.41 149.17 156.81 155.42 149.39 C 164.46 138.32 168.32 122.88 164.53 109.00 C 162.53 99.93 157.36 91.70 150.49 85.52 C 140.27 76.54 125.89 72.27 112.46 74.69 M 112.46 294.69 C 97.50 296.99 84.21 307.26 78.06 321.07 C 74.31 330.06 72.69 340.24 75.17 349.79 C 77.90 363.61 87.66 375.66 100.38 381.59 C 109.54 385.62 120.02 387.37 129.83 384.81 C 139.10 382.98 147.62 377.93 154.00 371.01 C 164.21 359.75 168.58 343.18 164.40 328.47 C 162.35 319.61 157.23 311.60 150.51 305.54 C 140.29 296.56 125.90 292.26 112.46 294.69 Z" />
<path fill="#2b4b6e" opacity="1.00" d=" M 329.61 56.83 C 340.90 55.11 352.72 56.09 363.36 60.36 C 382.69 68.00 397.94 85.46 402.48 105.79 C 404.60 115.75 404.41 126.18 402.01 136.06 C 396.12 158.76 376.98 177.43 354.06 182.53 C 350.11 183.13 348.87 187.57 348.98 191.00 C 349.01 215.32 348.99 239.64 348.99 263.96 C 349.06 267.56 348.50 271.41 350.18 274.74 C 351.24 276.95 353.81 277.43 355.96 277.97 C 381.02 284.25 401.18 307.14 403.56 332.97 C 405.07 346.26 402.41 360.04 395.63 371.62 C 386.59 387.26 370.88 399.13 353.07 402.70 C 340.96 405.02 328.11 404.24 316.61 399.62 C 299.69 392.90 285.88 378.71 279.68 361.59 C 275.60 350.44 275.15 338.18 277.36 326.58 C 281.97 304.82 298.79 286.20 319.88 279.20 C 322.45 278.26 325.20 277.89 327.73 276.82 C 330.50 275.34 330.96 271.80 331.02 268.99 C 330.97 242.60 331.05 216.22 330.98 189.84 C 330.95 186.48 329.16 182.81 325.48 182.37 C 300.90 176.77 280.65 155.38 276.86 130.40 C 274.87 117.55 276.43 104.00 282.28 92.31 C 291.21 73.91 309.26 59.89 329.61 56.83 M 332.50 74.69 C 316.53 77.11 302.44 88.68 296.95 103.86 C 294.08 112.14 292.91 121.21 295.17 129.79 C 298.04 144.31 308.67 156.92 322.37 162.43 C 331.04 165.82 340.72 167.20 349.84 164.81 C 363.91 162.04 376.07 151.95 381.93 138.93 C 385.71 129.84 387.33 119.55 384.75 109.91 C 382.85 100.50 377.61 91.91 370.50 85.53 C 360.29 76.55 345.92 72.27 332.50 74.69 M 332.53 294.68 C 318.05 296.90 305.10 306.54 298.71 319.70 C 294.30 329.19 292.56 340.22 295.32 350.45 C 298.14 363.78 307.55 375.35 319.75 381.29 C 329.05 385.55 339.77 387.42 349.80 384.82 C 360.23 382.73 369.77 376.67 376.27 368.29 C 384.83 357.21 388.26 342.05 384.41 328.49 C 382.35 319.60 377.21 311.55 370.45 305.49 C 360.24 296.56 345.92 292.28 332.53 294.68 Z" />
<path fill="#2b4b6e" opacity="1.00" d=" M 649.67 596.82 C 664.96 594.41 681.14 597.46 694.16 605.92 C 705.79 613.57 715.29 624.70 720.08 637.86 C 721.42 641.05 721.90 644.52 723.18 647.73 C 724.66 650.49 728.20 650.96 731.03 651.02 C 755.34 650.99 779.66 651.01 803.98 651.01 C 807.57 650.93 811.43 651.50 814.77 649.81 C 816.95 648.73 817.42 646.16 817.98 644.04 C 824.35 618.66 847.74 598.29 873.97 596.33 C 889.91 594.64 906.28 599.39 918.94 609.19 C 926.20 615.28 932.86 622.35 937.03 630.96 C 949.38 654.33 945.03 685.43 926.16 704.10 C 909.37 722.61 881.11 728.89 857.87 720.05 C 837.91 712.66 822.13 694.85 817.47 674.04 C 816.94 670.55 813.23 669.07 810.10 669.01 C 783.70 668.96 757.30 669.03 730.90 668.98 C 728.52 669.03 725.90 669.39 724.07 671.05 C 722.74 672.35 722.51 674.30 722.00 676.00 C 717.51 693.81 704.69 709.09 688.38 717.34 C 675.37 723.99 660.06 725.47 645.85 722.49 C 617.53 716.35 595.29 689.08 596.01 659.93 C 595.30 629.51 619.68 601.18 649.67 596.82 M 652.58 614.67 C 637.58 616.94 624.24 627.21 618.07 641.05 C 614.32 650.06 612.68 660.25 615.18 669.82 C 617.11 679.56 622.57 688.45 630.04 694.94 C 641.16 704.31 656.91 708.40 671.05 704.52 C 680.57 702.40 689.18 696.81 695.43 689.38 C 704.44 678.34 708.31 662.94 704.55 649.08 C 701.60 635.72 691.99 624.23 679.68 618.41 C 671.25 614.72 661.71 612.89 652.58 614.67 M 872.57 614.67 C 855.14 617.27 839.88 630.87 835.70 648.04 C 833.69 655.11 833.34 662.68 835.18 669.83 C 838.06 684.34 848.69 696.94 862.38 702.44 C 871.04 705.81 880.70 707.20 889.80 704.82 C 903.89 702.05 916.06 691.97 921.93 678.94 C 925.71 669.85 927.33 659.56 924.75 649.92 C 922.89 640.73 917.86 632.31 911.00 625.99 C 900.79 616.70 886.19 612.25 872.57 614.67 Z" />
<path fill="#2b4b6e" opacity="1.00" d=" M 649.64 816.82 C 661.82 814.99 674.61 816.32 685.87 821.47 C 704.06 829.60 718.17 846.48 722.54 865.98 C 723.07 869.48 726.80 870.91 729.95 870.99 C 756.29 871.04 782.64 870.97 808.98 871.02 C 811.80 870.96 815.36 870.49 816.83 867.71 C 818.03 864.71 818.46 861.46 819.69 858.46 C 828.27 834.40 852.23 816.33 877.99 816.08 C 902.07 814.76 925.59 829.09 936.68 850.27 C 944.70 865.08 946.02 883.15 941.12 899.17 C 935.04 918.49 919.30 934.46 900.07 940.83 C 877.69 948.31 851.20 942.34 834.88 925.08 C 825.91 916.66 820.09 905.30 817.27 893.40 C 816.38 889.82 812.17 888.95 809.00 888.98 C 782.97 889.00 756.94 889.00 730.91 888.98 C 727.50 888.89 723.14 890.14 722.53 894.05 C 716.80 919.90 693.65 941.07 667.15 943.55 C 650.42 945.60 633.04 940.57 619.99 929.92 C 613.57 924.32 607.60 918.01 603.67 910.37 C 596.32 897.27 594.42 881.51 597.30 866.86 C 602.37 841.64 624.15 820.64 649.64 816.82 M 652.48 834.69 C 637.51 836.98 624.21 847.26 618.06 861.07 C 614.31 870.08 612.68 880.27 615.18 889.83 C 618.06 904.31 628.65 916.89 642.32 922.41 C 650.99 925.81 660.70 927.20 669.82 924.81 C 683.64 922.09 695.64 912.32 701.61 899.63 C 705.65 890.39 707.38 879.80 704.75 869.92 C 702.89 860.73 697.86 852.30 690.98 845.97 C 680.75 836.68 666.12 832.23 652.48 834.69 M 872.50 834.68 C 856.79 837.07 842.90 848.30 837.22 863.13 C 834.27 871.34 832.88 880.37 834.99 888.97 C 837.25 901.16 844.81 912.28 855.37 918.79 C 869.78 928.12 889.44 928.32 904.00 919.19 C 914.40 912.97 922.10 902.34 924.65 890.49 C 927.61 879.33 925.48 867.12 919.89 857.14 C 910.85 840.72 890.91 831.32 872.50 834.68 Z" />
</g>
<g id="#e17854ff">
<path fill="#e17854" opacity="1.00" d=" M 650.48 56.66 C 663.07 54.97 676.28 56.51 687.70 62.27 C 705.09 70.71 718.55 87.27 722.59 106.26 C 724.70 116.69 724.46 127.67 721.54 137.93 C 716.14 156.34 702.03 171.92 684.32 179.26 C 673.46 183.91 661.28 184.87 649.66 183.22 C 630.30 180.26 613.01 167.47 603.66 150.40 C 596.57 137.89 594.64 122.92 596.91 108.84 C 601.26 82.46 623.97 60.26 650.48 56.66 M 655.22 74.28 C 642.70 75.65 630.77 82.14 623.28 92.33 C 615.12 103.19 611.86 117.89 615.49 131.06 C 619.59 149.82 636.87 164.19 655.86 165.80 C 671.11 167.17 686.97 160.47 696.28 148.23 C 704.73 137.30 708.19 122.35 704.50 108.94 C 702.33 99.20 696.53 90.40 688.81 84.14 C 679.47 76.66 667.11 73.01 655.22 74.28 Z" />
<path fill="#e17854" opacity="1.00" d=" M 870.53 56.66 C 881.64 55.20 893.23 56.15 903.65 60.45 C 922.78 68.16 937.91 85.44 942.46 105.63 C 944.46 115.06 944.51 124.94 942.45 134.36 C 938.00 154.06 923.49 171.04 904.99 178.98 C 891.84 184.70 876.70 185.38 862.90 181.78 C 835.68 174.38 814.87 147.48 816.03 119.04 C 815.67 88.62 840.50 60.61 870.53 56.66 M 875.15 74.29 C 861.75 75.77 848.99 83.19 841.71 94.62 C 837.29 100.88 835.14 108.43 834.19 115.94 C 832.75 132.08 840.39 148.90 854.01 157.87 C 860.40 162.48 868.16 164.84 875.92 165.80 C 892.34 167.27 909.49 159.34 918.34 145.28 C 922.72 139.05 924.84 131.54 925.80 124.07 C 927.21 108.35 920.00 92.00 907.06 82.84 C 897.98 76.19 886.32 73.10 875.15 74.29 Z" />
<path fill="#e17854" opacity="1.00" d=" M 596.01 221.01 C 638.67 221.02 681.34 220.98 724.00 221.03 C 723.98 227.02 724.01 233.00 723.98 238.99 C 681.32 238.98 638.66 239.02 596.00 238.96 C 596.02 232.98 596.00 227.00 596.01 221.01 Z" />
<path fill="#e17854" opacity="1.00" d=" M 816.01 221.01 C 858.67 221.01 901.33 220.99 944.00 221.03 C 943.98 227.01 944.00 233.00 943.98 238.99 C 901.33 238.99 858.67 238.99 816.02 238.99 C 816.00 233.00 816.00 227.01 816.01 221.01 Z" />
<path fill="#e17854" opacity="1.00" d=" M 650.54 276.65 C 661.63 275.21 673.21 276.14 683.61 280.44 C 702.77 288.12 717.91 305.44 722.46 325.64 C 724.48 335.06 724.48 344.91 722.46 354.33 C 717.97 374.28 703.16 391.42 684.34 399.25 C 671.66 404.61 657.21 405.26 643.91 402.05 C 616.54 395.11 595.29 368.47 596.02 340.00 C 595.18 309.24 620.17 280.64 650.54 276.65 M 655.25 294.28 C 642.48 295.69 630.26 302.40 622.83 312.98 C 614.98 323.75 611.94 338.20 615.51 351.12 C 618.56 364.65 628.46 376.27 641.08 381.89 C 650.26 385.78 660.71 387.34 670.44 384.65 C 679.48 382.76 687.74 377.75 693.98 371.00 C 704.08 359.86 708.51 343.51 704.50 328.92 C 702.44 319.66 697.06 311.28 689.96 305.07 C 680.48 297.00 667.63 292.96 655.25 294.28 Z" />
<path fill="#e17854" opacity="1.00" d=" M 870.51 276.66 C 882.12 275.13 894.27 276.24 905.04 281.04 C 923.72 289.07 938.36 306.33 942.60 326.30 C 944.56 336.06 944.47 346.29 942.06 355.96 C 937.27 374.73 923.36 390.84 905.68 398.66 C 893.63 404.18 879.81 405.15 866.87 402.73 C 838.15 397.01 815.26 369.52 816.02 340.03 C 815.16 309.26 840.14 280.66 870.51 276.66 M 875.20 294.29 C 862.68 295.67 850.73 302.17 843.26 312.37 C 834.92 323.47 831.77 338.55 835.72 351.94 C 837.69 360.19 842.40 367.67 848.49 373.51 C 859.85 384.15 876.91 388.74 891.94 384.27 C 900.65 382.18 908.52 377.08 914.47 370.46 C 924.20 359.33 928.45 343.29 924.50 328.93 C 922.33 319.23 916.58 310.45 908.89 304.21 C 899.54 296.68 887.13 293.00 875.20 294.29 Z" />
<path fill="#e17854" opacity="1.00" d=" M 110.51 596.66 C 122.11 595.14 134.24 596.24 144.99 601.02 C 163.49 608.95 178.03 625.93 182.45 645.64 C 184.39 654.62 184.47 664.01 182.74 673.04 C 178.64 693.26 163.94 710.84 145.04 718.95 C 132.23 724.57 117.52 725.32 104.00 722.07 C 76.59 715.17 55.29 688.50 56.02 660.01 C 55.17 629.25 80.16 600.66 110.51 596.66 M 115.25 614.28 C 101.79 615.74 88.98 623.17 81.68 634.66 C 77.28 640.90 75.14 648.43 74.19 655.93 C 72.75 672.08 80.39 688.91 94.02 697.87 C 100.40 702.47 108.13 704.83 115.86 705.80 C 132.28 707.29 149.44 699.37 158.30 685.32 C 162.52 679.38 164.60 672.23 165.69 665.10 C 167.54 649.08 160.29 632.21 147.07 622.86 C 138.03 616.20 126.39 613.12 115.25 614.28 Z" />
<path fill="#e17854" opacity="1.00" d=" M 221.01 596.02 C 227.00 596.00 233.00 595.99 239.00 596.03 C 238.98 638.68 239.00 681.34 238.99 723.99 C 232.99 723.98 227.00 724.01 221.00 723.98 C 221.01 681.32 221.01 638.67 221.01 596.02 Z" />
<path fill="#e17854" opacity="1.00" d=" M 330.53 596.66 C 342.13 595.14 354.27 596.25 365.02 601.03 C 383.55 608.98 398.07 626.00 402.48 645.73 C 404.48 655.11 404.48 664.93 402.47 674.31 C 398.02 694.04 383.50 711.06 364.95 718.99 C 353.71 723.96 341.00 724.96 328.94 723.10 C 310.82 720.13 294.64 708.48 285.11 692.93 C 277.53 680.77 274.75 666.01 276.49 651.86 C 279.53 624.19 302.99 600.35 330.53 596.66 M 335.18 614.29 C 322.65 615.68 310.69 622.19 303.23 632.41 C 294.91 643.48 291.79 658.54 295.71 671.89 C 297.66 680.18 302.40 687.68 308.52 693.53 C 319.86 704.12 336.86 708.72 351.86 704.29 C 360.61 702.22 368.50 697.09 374.49 690.45 C 384.22 679.31 388.46 663.26 384.49 648.90 C 382.44 639.65 377.07 631.28 369.97 625.09 C 360.48 616.98 347.59 612.94 335.18 614.29 Z" />
<path fill="#e17854" opacity="1.00" d=" M 110.47 816.67 C 123.06 814.97 136.30 816.50 147.71 822.28 C 165.10 830.72 178.54 847.27 182.59 866.25 C 184.57 876.03 184.47 886.28 182.06 895.99 C 177.00 915.72 161.90 932.47 142.94 939.82 C 132.40 944.01 120.74 944.80 109.59 943.21 C 90.72 940.30 73.82 928.05 64.34 911.61 C 56.97 899.23 54.69 884.30 56.70 870.14 C 60.52 843.22 83.52 820.32 110.47 816.67 M 115.23 834.28 C 101.79 835.75 88.98 843.17 81.69 854.65 C 77.30 860.88 75.15 868.40 74.19 875.89 C 72.73 892.06 80.41 908.93 94.06 917.91 C 100.46 922.51 108.21 924.84 115.95 925.81 C 132.33 927.26 149.44 919.36 158.28 905.35 C 162.69 899.11 164.85 891.56 165.81 884.06 C 167.20 868.34 160.01 851.97 147.04 842.84 C 138.00 836.19 126.37 833.12 115.23 834.28 Z" />
<path fill="#e17854" opacity="1.00" d=" M 221.01 816.02 C 227.00 815.99 232.98 816.02 238.97 816.00 C 239.02 858.66 238.98 901.32 238.99 943.98 C 233.00 944.00 227.00 943.99 221.01 943.99 C 221.01 901.33 221.01 858.68 221.01 816.02 Z" />
<path fill="#e17854" opacity="1.00" d=" M 330.50 816.66 C 342.07 815.14 354.19 816.22 364.93 820.99 C 383.48 828.92 398.05 845.94 402.47 865.70 C 404.48 875.09 404.48 884.91 402.47 894.31 C 398.03 914.03 383.51 931.03 364.98 938.98 C 353.41 944.08 340.30 945.04 327.91 942.92 C 310.20 939.69 294.47 928.19 285.11 912.94 C 277.53 900.78 274.76 886.01 276.49 871.85 C 279.54 844.20 302.97 820.37 330.50 816.66 M 335.23 834.28 C 322.71 835.66 310.73 842.15 303.27 852.37 C 294.94 863.44 291.78 878.48 295.70 891.85 C 297.71 900.36 302.62 908.05 309.00 913.98 C 320.35 924.26 337.11 928.67 351.90 924.27 C 360.39 922.27 368.06 917.36 373.97 911.02 C 384.06 899.90 388.50 883.56 384.51 868.98 C 382.41 859.47 376.83 850.87 369.42 844.63 C 360.00 836.84 347.38 832.98 335.23 834.28 Z" />
</g>
</svg>
