<?xml version="1.0" encoding="UTF-8" ?>
<!DOCTYPE svg PUBLIC "-//W3C//DTD SVG 1.1//EN" "http://www.w3.org/Graphics/SVG/1.1/DTD/svg11.dtd">
<svg width="1000pt" height="1000pt" viewBox="0 0 1000 1000" version="1.1" xmlns="http://www.w3.org/2000/svg">
<g id="#2b4b6eff">
<path fill="#2b4b6e" opacity="1.00" d=" M 129.02 64.08 C 146.11 60.96 164.30 62.52 180.07 70.07 C 198.18 78.40 213.05 93.49 221.23 111.66 C 226.56 122.98 228.53 135.56 228.35 147.99 C 228.32 151.76 226.90 155.75 228.51 159.38 C 229.31 161.86 231.62 163.39 233.99 164.16 C 291.70 183.46 349.46 202.63 407.21 221.81 C 412.30 224.18 417.75 225.62 422.97 227.67 C 420.90 234.06 418.46 240.37 417.33 247.03 C 398.75 241.36 380.39 234.92 361.93 228.86 C 354.81 226.34 347.46 224.43 340.57 221.33 C 303.33 208.89 266.07 196.53 228.84 184.09 C 224.56 182.03 218.99 183.44 216.75 187.78 C 205.33 207.11 185.78 221.41 163.90 226.44 C 151.78 228.94 139.19 228.90 127.07 226.45 C 108.68 222.22 91.89 211.50 80.30 196.63 C 66.70 179.82 60.48 157.46 63.11 136.04 C 66.37 101.12 94.73 70.72 129.02 64.08 M 136.45 83.63 C 120.96 86.01 106.16 94.00 96.56 106.51 C 90.44 114.03 86.36 123.13 84.39 132.61 C 81.19 145.79 83.39 159.86 88.92 172.09 C 97.06 189.70 113.87 202.98 132.96 206.58 C 145.48 209.62 158.77 207.57 170.55 202.67 C 188.80 194.76 202.94 177.63 206.59 157.99 C 209.52 145.98 207.58 133.29 203.26 121.87 C 197.18 106.43 184.49 93.90 169.16 87.63 C 158.82 83.68 147.46 81.73 136.45 83.63 Z" />
<path fill="#2b4b6e" opacity="1.00" d=" M 581.86 263.73 C 582.08 263.64 582.51 263.44 582.73 263.35 C 583.33 267.63 582.35 271.90 581.31 276.03 C 581.02 277.40 580.56 279.12 581.63 280.28 C 605.04 287.13 627.92 295.62 651.09 303.22 C 691.38 316.63 731.65 330.12 771.95 343.49 C 775.96 345.20 781.48 343.72 783.30 339.55 C 797.48 315.31 824.71 298.87 852.97 299.05 C 883.72 297.67 913.75 316.00 927.89 343.09 C 943.84 372.32 939.56 411.25 917.17 436.02 C 911.28 442.32 905.01 448.43 897.46 452.73 C 884.23 460.98 868.59 465.11 853.03 464.67 C 834.71 464.68 816.73 457.79 802.50 446.39 C 795.09 439.81 788.12 432.57 783.14 423.93 C 781.09 420.11 776.12 418.41 772.14 420.09 C 730.31 433.97 688.52 447.96 646.71 461.88 C 625.02 469.01 603.56 476.91 581.56 483.04 C 581.80 488.40 583.60 493.75 582.53 499.12 C 581.71 488.65 580.78 477.96 576.59 468.19 C 575.99 466.49 574.29 463.98 576.95 463.19 C 595.46 457.28 613.65 450.38 632.36 445.12 C 676.83 430.25 721.32 415.46 765.80 400.61 C 769.86 399.45 772.88 395.29 772.23 391.03 C 771.64 385.36 771.32 379.64 772.10 373.97 C 772.72 369.78 771.21 364.40 766.57 363.32 C 730.30 351.19 694.00 339.14 657.71 327.04 C 630.51 317.84 603.03 309.45 576.02 299.70 C 575.39 299.37 574.76 299.03 574.15 298.69 C 577.13 292.15 579.88 285.34 580.58 278.12 C 581.75 273.43 582.44 268.56 581.86 263.73 M 847.47 319.70 C 833.42 321.52 819.84 327.75 809.97 338.02 C 797.99 350.02 791.59 367.14 792.02 384.02 C 792.74 396.69 796.87 409.35 804.68 419.45 C 813.57 431.59 827.27 440.00 841.99 442.94 C 854.11 445.87 866.94 444.05 878.43 439.55 C 896.50 432.27 910.63 415.99 915.00 396.98 C 917.57 387.48 917.75 377.35 915.27 367.82 C 911.37 348.93 897.71 332.55 880.12 324.81 C 869.89 320.51 858.55 318.22 847.47 319.70 Z" />
<path fill="#2b4b6e" opacity="1.00" d=" M 395.48 287.57 C 403.10 285.78 410.41 282.93 417.87 280.60 C 419.83 287.89 421.98 295.30 426.03 301.75 C 425.64 301.29 424.86 300.36 424.46 299.89 C 407.68 305.57 390.90 311.24 374.09 316.85 C 359.17 320.95 344.66 326.38 329.93 331.12 C 297.98 341.77 266.02 352.44 234.06 363.08 C 231.98 363.82 229.62 364.79 228.87 367.08 C 226.84 371.16 228.34 375.71 228.36 380.01 C 228.66 384.38 227.67 388.70 227.77 393.07 C 228.04 396.74 231.02 399.72 234.47 400.70 C 286.25 417.91 337.99 435.29 389.79 452.45 C 400.34 455.51 410.45 459.76 420.85 463.23 C 421.51 463.45 422.81 463.89 423.46 464.11 C 420.82 470.29 418.97 476.74 417.34 483.25 L 416.38 483.04 C 406.11 480.10 396.02 476.48 385.85 473.19 C 374.41 468.51 362.48 465.13 350.81 461.07 C 309.92 447.43 269.04 433.78 228.15 420.17 C 224.11 418.38 218.97 419.97 216.87 423.89 C 212.01 432.38 205.20 439.48 197.98 445.98 C 182.67 458.54 162.82 465.53 142.98 464.66 C 111.17 464.39 81.27 443.20 69.04 414.10 C 62.04 398.15 61.07 379.99 64.53 363.05 C 68.46 346.61 77.50 331.45 90.02 320.11 C 102.53 309.08 118.27 301.41 134.92 299.54 C 144.43 298.64 154.09 298.83 163.47 300.75 C 185.93 305.81 205.98 320.57 217.34 340.61 C 218.20 342.51 220.29 343.25 222.14 343.85 C 225.17 345.01 228.22 343.28 231.12 342.50 C 285.91 324.19 340.74 306.01 395.48 287.57 M 138.49 319.70 C 127.97 321.17 117.59 324.70 109.01 331.06 C 96.76 339.78 87.79 353.09 84.72 367.85 C 81.17 381.20 83.29 395.54 88.78 408.06 C 96.52 425.26 112.58 438.44 131.03 442.50 C 140.45 444.98 150.49 444.98 159.92 442.50 C 178.59 438.36 194.77 424.90 202.46 407.42 C 207.73 395.16 209.73 381.18 206.32 368.14 C 202.57 350.17 190.20 334.33 173.80 326.14 C 162.96 320.82 150.54 318.18 138.49 319.70 Z" />
<path fill="#2b4b6e" opacity="1.00" d=" M 574.27 535.56 C 579.67 524.44 581.96 512.14 582.54 499.88 C 583.74 505.37 581.42 510.74 580.98 516.17 C 612.28 526.08 643.21 537.08 674.39 547.35 C 705.20 557.62 736.01 567.90 766.82 578.18 C 769.55 579.07 772.25 580.16 775.11 580.60 C 778.09 580.68 781.18 579.24 782.77 576.67 C 791.36 562.41 803.89 550.30 819.06 543.25 C 849.25 528.39 888.55 534.60 912.12 558.81 C 930.12 575.47 939.41 600.73 937.12 625.08 C 935.34 653.05 917.52 679.04 892.73 691.79 C 880.28 698.47 866.07 701.58 851.98 700.91 C 824.05 700.81 797.34 684.37 783.31 660.47 C 781.48 656.27 775.95 654.78 771.93 656.52 C 718.32 674.32 664.76 692.26 611.17 710.09 C 603.69 713.29 595.81 715.39 588.15 718.11 C 586.18 718.72 584.24 719.79 582.11 719.49 C 581.11 724.59 583.64 729.63 582.65 734.74 C 581.36 733.15 582.57 730.79 582.19 728.94 C 581.26 720.84 580.06 712.65 576.89 705.07 C 576.43 703.48 574.78 701.37 576.85 700.22 C 584.15 697.79 591.47 695.40 598.76 692.92 C 602.59 691.33 606.44 689.80 610.45 688.69 C 662.28 671.46 714.08 654.17 765.91 636.93 C 768.04 636.18 770.41 635.17 771.17 632.83 C 773.13 628.78 771.67 624.27 771.65 620.01 C 771.40 615.96 772.14 611.96 772.26 607.93 C 772.47 604.00 769.50 600.48 765.84 599.39 C 725.34 585.88 684.83 572.39 644.33 558.87 C 620.84 551.53 597.59 543.43 574.27 535.56 M 843.50 556.73 C 826.93 559.65 811.66 569.48 802.47 583.62 C 793.31 597.61 789.55 615.48 793.67 631.83 C 797.00 647.59 806.87 661.89 820.47 670.53 C 830.35 677.09 842.22 680.36 854.01 680.77 C 867.81 680.59 881.74 676.24 892.68 667.70 C 904.22 658.86 912.56 645.87 915.41 631.57 C 918.74 618.61 916.68 604.77 911.52 592.59 C 904.95 577.59 892.16 565.55 876.83 559.83 C 866.23 556.02 854.62 554.36 843.50 556.73 Z" />
<path fill="#2b4b6e" opacity="1.00" d=" M 402.50 521.61 C 406.97 520.71 411.22 519.06 415.57 517.74 C 416.18 517.67 417.40 517.54 418.01 517.47 C 419.40 524.04 421.59 530.45 424.62 536.45 C 409.26 540.90 394.43 547.04 378.96 551.12 C 332.43 566.62 285.92 582.18 239.39 597.65 C 235.78 598.97 231.34 599.61 229.13 603.13 C 226.39 607.30 228.55 612.43 228.37 617.01 C 228.87 622.49 226.37 628.35 229.15 633.49 C 230.63 636.36 234.21 636.83 236.95 637.90 C 280.70 652.43 324.41 667.06 368.14 681.63 C 385.62 687.64 403.39 692.70 420.77 699.02 C 421.68 699.51 422.59 700.02 423.50 700.56 C 420.49 706.43 419.09 712.90 417.31 719.21 L 416.51 719.05 C 402.17 715.51 388.53 709.75 374.48 705.30 C 325.66 689.04 276.86 672.71 228.02 656.48 C 223.99 654.74 218.47 656.31 216.67 660.50 C 202.44 684.67 175.28 701.14 147.02 700.95 C 117.01 702.29 87.65 684.85 73.14 658.80 C 58.66 633.70 59.07 600.82 74.04 576.02 C 78.76 567.60 85.62 560.70 92.70 554.25 C 107.24 542.18 125.98 535.10 144.95 535.32 C 163.93 534.84 182.74 541.76 197.48 553.59 C 204.90 560.17 211.87 567.40 216.83 576.05 C 218.91 579.95 224.00 581.62 228.05 579.86 C 286.21 560.47 344.39 541.15 402.50 521.61 M 134.48 556.73 C 118.42 559.56 103.40 568.82 94.26 582.40 C 86.94 592.73 83.25 605.42 82.94 618.01 C 83.20 634.44 89.47 651.08 101.48 662.51 C 113.01 674.37 129.61 680.60 146.01 680.77 C 157.79 680.37 169.64 677.08 179.51 670.54 C 193.38 661.75 203.32 647.08 206.52 630.99 C 209.56 618.73 207.73 605.71 203.11 594.09 C 196.82 578.78 184.18 566.31 168.78 560.22 C 157.93 556.10 145.94 554.30 134.48 556.73 Z" />
<path fill="#2b4b6e" opacity="1.00" d=" M 396.47 759.59 C 403.53 757.25 410.62 754.99 417.63 752.52 C 419.14 759.14 421.52 765.51 424.01 771.82 C 423.50 772.13 422.50 772.75 422.00 773.06 C 408.52 778.03 394.82 782.54 381.07 786.76 C 332.06 803.13 283.04 819.46 234.02 835.81 C 229.92 836.80 227.37 841.00 227.75 845.09 C 229.22 858.14 227.89 871.67 223.06 883.95 C 215.76 903.09 201.14 919.34 182.85 928.56 C 169.45 935.60 153.99 938.34 138.96 937.15 C 109.76 935.44 82.72 916.20 70.43 889.84 C 62.53 873.92 60.93 855.41 64.09 838.06 C 70.33 806.14 96.96 779.42 128.90 773.19 C 144.98 770.38 162.08 771.32 177.17 777.91 C 193.63 784.66 207.58 797.00 216.74 812.20 C 218.35 815.12 221.58 817.06 224.94 816.86 C 227.58 816.51 230.05 815.45 232.57 814.66 C 274.11 800.82 315.66 786.99 357.21 773.15 C 370.33 768.73 383.55 764.59 396.47 759.59 M 136.52 792.72 C 119.59 795.19 103.68 804.72 94.10 818.97 C 87.29 828.60 83.68 840.28 82.95 852.00 C 82.35 870.35 89.95 889.04 103.80 901.22 C 112.04 908.55 122.25 913.58 133.07 915.71 C 144.64 918.49 156.84 916.85 167.92 912.86 C 184.24 906.61 197.73 893.25 203.77 876.82 C 207.69 865.72 209.43 853.51 206.58 841.95 C 202.90 822.32 188.76 805.19 170.50 797.31 C 159.84 792.93 147.98 790.73 136.52 792.72 Z" />
</g>
<g id="#e17854ff">
<path fill="#e17854" opacity="1.00" d=" M 463.19 188.14 C 489.43 174.65 522.76 177.18 546.83 194.18 C 558.73 202.52 568.14 214.06 574.86 226.87 C 580.04 238.28 582.39 250.77 583.00 263.23 L 582.73 263.35 C 582.51 263.44 582.08 263.64 581.86 263.73 C 582.44 268.56 581.75 273.43 580.58 278.12 C 579.88 285.34 577.13 292.15 574.15 298.69 C 574.76 299.03 575.39 299.37 576.02 299.70 C 575.49 299.61 574.43 299.44 573.90 299.35 C 561.32 324.69 535.42 343.42 506.97 345.50 C 478.92 348.43 450.18 335.19 433.40 312.67 C 430.69 309.20 428.58 305.33 426.03 301.75 C 421.98 295.30 419.83 287.89 417.87 280.60 C 416.96 277.11 417.53 273.47 416.91 269.95 C 415.90 262.30 417.26 254.66 417.33 247.03 C 418.46 240.37 420.90 234.06 422.97 227.67 C 426.08 222.85 429.72 218.43 432.73 213.54 C 437.97 206.56 444.22 200.32 451.31 195.22 C 453.81 193.40 456.43 191.74 459.15 190.25 C 460.47 189.50 461.81 188.79 463.19 188.14 M 462.95 209.95 C 449.34 218.69 439.67 233.12 436.31 248.89 C 430.64 272.79 439.95 299.69 459.89 314.29 C 476.29 326.65 498.65 331.26 518.40 325.20 C 527.04 322.92 534.75 318.14 541.74 312.69 C 558.18 298.41 566.66 275.43 563.41 253.90 C 561.54 240.95 555.39 228.91 546.70 219.21 C 538.17 210.61 527.30 204.16 515.43 201.42 C 497.79 196.75 478.20 199.93 462.95 209.95 Z" />
<path fill="#e17854" opacity="1.00" d=" M 429.91 454.73 C 443.42 433.59 466.95 419.07 491.98 416.89 C 507.56 415.29 523.64 418.34 537.50 425.65 C 553.82 433.72 566.45 447.90 574.88 463.84 C 575.40 463.68 576.43 463.35 576.95 463.19 C 574.29 463.98 575.99 466.49 576.59 468.19 C 580.78 477.96 581.71 488.65 582.53 499.12 L 582.54 499.88 C 581.96 512.14 579.67 524.44 574.27 535.56 C 561.73 561.63 535.05 580.86 505.92 582.57 C 477.97 585.16 449.51 571.67 432.99 549.12 C 430.01 545.03 427.37 540.69 424.62 536.45 C 421.59 530.45 419.40 524.04 418.01 517.47 C 417.40 517.54 416.18 517.67 415.57 517.74 L 414.97 517.80 C 415.65 517.65 417.03 517.36 417.71 517.21 C 417.00 507.84 415.83 498.39 417.25 489.01 C 417.06 487.05 418.02 484.51 416.38 483.04 L 417.34 483.25 C 418.97 476.74 420.82 470.29 423.46 464.11 C 422.81 463.89 421.51 463.45 420.85 463.23 C 421.47 463.37 422.71 463.66 423.33 463.81 C 425.59 460.83 427.90 457.88 429.91 454.73 M 476.46 440.21 C 461.97 445.32 449.48 455.89 442.31 469.51 C 434.76 483.70 432.62 500.77 436.80 516.32 C 439.92 529.99 448.24 542.21 459.23 550.81 C 475.71 563.51 498.38 568.34 518.40 562.20 C 527.03 559.93 534.71 555.14 541.72 549.73 C 554.91 538.30 562.83 521.36 564.00 504.02 C 565.37 483.36 555.74 462.38 539.44 449.71 C 521.69 436.42 497.34 432.59 476.46 440.21 Z" />
<path fill="#e17854" opacity="1.00" d=" M 441.04 676.97 C 454.56 663.41 472.88 654.56 491.99 652.89 C 507.08 651.35 522.68 654.14 536.23 661.01 C 553.25 669.11 566.60 683.70 575.06 700.38 C 575.50 700.34 576.40 700.26 576.85 700.22 C 574.78 701.37 576.43 703.48 576.89 705.07 C 580.06 712.65 581.26 720.84 582.19 728.94 C 582.57 730.79 581.36 733.15 582.65 734.74 L 582.85 734.99 C 582.23 758.22 572.78 781.69 555.04 797.08 C 531.22 820.08 492.70 825.51 463.34 810.32 C 450.35 804.26 439.37 794.30 431.19 782.60 C 428.96 779.12 426.67 775.69 424.43 772.22 C 423.82 772.43 422.60 772.85 422.00 773.06 C 422.50 772.75 423.50 772.13 424.01 771.82 C 421.52 765.51 419.14 759.14 417.63 752.52 C 416.96 743.39 415.85 734.15 417.25 725.00 C 417.14 723.04 417.84 720.69 416.51 719.05 L 417.31 719.21 C 419.09 712.90 420.49 706.43 423.50 700.56 C 422.59 700.02 421.68 699.51 420.77 699.02 C 421.51 699.14 423.00 699.38 423.74 699.50 C 429.38 691.90 434.08 683.52 441.04 676.97 M 480.16 675.04 C 466.06 679.06 453.35 688.14 445.34 700.47 C 435.33 715.51 432.13 734.92 436.82 752.38 C 439.95 766.05 448.28 778.27 459.29 786.85 C 475.63 799.41 498.05 804.27 517.92 798.33 C 526.73 796.09 534.61 791.26 541.72 785.72 C 553.64 775.37 561.35 760.50 563.47 744.90 C 566.85 722.75 557.02 699.34 539.40 685.68 C 522.70 673.26 500.15 668.97 480.16 675.04 Z" />
</g>
</svg>
