<?xml version="1.0" encoding="UTF-8" ?>
<!DOCTYPE svg PUBLIC "-//W3C//DTD SVG 1.1//EN" "http://www.w3.org/Graphics/SVG/1.1/DTD/svg11.dtd">
<svg width="1000pt" height="1000pt" viewBox="0 0 1000 1000" version="1.1" xmlns="http://www.w3.org/2000/svg">
<g id="#e17854ff">
<path fill="#e17854" opacity="1.00" d=" M 676.57 22.87 C 717.57 19.63 759.40 28.68 795.39 48.57 C 842.74 74.36 879.78 118.28 897.57 169.15 C 911.61 209.78 911.70 255.00 898.53 295.86 C 883.50 342.42 851.52 383.14 810.11 409.12 C 808.12 410.42 805.65 411.58 805.05 414.12 C 803.90 416.40 804.94 418.87 806.02 420.95 C 813.97 435.33 821.86 449.75 829.73 464.18 C 830.83 466.44 833.50 467.45 835.89 467.54 C 838.55 466.97 840.92 465.57 843.31 464.32 C 853.89 458.46 864.57 452.80 875.16 446.99 C 879.42 445.42 883.17 449.38 885.17 452.72 C 911.96 502.31 938.80 551.87 965.65 601.42 C 969.77 609.48 974.92 617.15 977.17 626.04 C 980.95 640.84 979.36 657.24 971.57 670.52 C 965.32 681.65 955.31 690.50 943.70 695.73 C 933.41 701.24 921.72 704.05 910.04 703.52 C 891.43 703.15 873.12 693.95 862.02 678.98 C 858.81 675.00 856.67 670.33 854.18 665.92 C 826.54 614.84 798.90 563.76 771.24 512.69 C 769.84 510.01 768.41 507.08 768.75 503.97 C 769.37 500.97 771.79 498.76 774.40 497.40 C 783.74 492.40 793.05 487.33 802.37 482.28 C 805.09 480.76 808.13 479.58 810.31 477.27 C 812.25 474.76 811.58 471.40 810.18 468.81 C 802.48 454.86 794.82 440.89 787.19 426.91 C 786.07 424.78 784.34 422.80 781.92 422.21 C 779.69 421.47 777.61 422.90 775.63 423.70 C 734.53 442.48 687.20 446.99 643.23 436.62 C 617.42 430.36 592.81 419.22 571.03 404.03 C 568.79 402.54 566.73 400.51 564.01 400.01 C 560.83 399.77 558.42 402.24 556.56 404.48 C 550.21 412.47 543.84 420.44 537.44 428.40 C 536.11 430.10 534.28 431.65 534.03 433.94 C 533.16 437.32 535.86 439.95 537.60 442.50 C 545.09 452.62 547.61 465.64 546.74 478.02 C 545.89 491.78 539.65 505.18 529.56 514.57 C 517.88 526.61 500.44 532.21 483.87 530.44 C 470.49 529.49 457.92 522.92 448.53 513.51 C 436.75 501.34 430.49 483.77 433.11 466.92 C 433.54 463.58 435.03 460.45 435.19 457.08 C 435.05 453.78 432.03 451.88 429.41 450.56 C 413.28 442.04 397.07 433.67 380.97 425.09 C 377.69 423.53 374.63 421.25 370.96 420.76 C 368.44 420.45 366.41 422.15 364.85 423.89 C 354.85 434.58 340.75 441.73 325.99 442.09 C 317.51 442.52 308.95 441.18 301.12 437.83 C 298.26 436.48 294.20 436.36 292.15 439.14 C 273.02 464.36 253.89 489.58 234.72 514.77 C 233.13 516.98 230.82 519.05 230.92 522.00 C 230.77 524.15 232.11 525.91 233.37 527.50 C 241.07 537.21 245.53 549.54 245.38 561.97 C 245.80 581.61 234.75 600.90 217.85 610.82 C 206.96 617.71 193.59 620.07 180.89 618.53 C 167.68 617.14 155.29 610.46 146.25 600.85 C 136.81 590.64 131.09 576.97 131.02 563.02 C 130.47 547.20 136.93 531.34 148.44 520.47 C 163.41 505.55 187.12 500.56 206.90 507.91 C 210.42 508.98 214.54 511.65 218.01 509.06 C 221.38 506.36 223.58 502.56 226.24 499.22 C 243.85 475.87 261.65 452.68 279.24 429.32 C 281.53 426.36 280.82 422.16 278.39 419.52 C 265.40 403.47 262.67 380.06 271.36 361.36 C 279.01 344.77 294.90 332.04 313.00 328.96 C 323.90 327.20 335.42 327.98 345.63 332.37 C 358.49 337.71 369.18 347.98 375.26 360.48 C 380.84 372.16 382.48 385.99 378.44 398.42 C 377.14 401.71 378.45 405.74 381.77 407.21 C 400.40 416.90 418.95 426.75 437.58 436.45 C 439.77 437.54 442.37 438.89 444.81 437.66 C 447.97 436.01 450.28 433.17 453.00 430.92 C 469.04 416.77 493.21 413.05 512.83 421.51 C 516.29 423.30 521.20 424.52 524.06 421.04 C 531.66 411.65 539.19 402.18 546.72 392.73 C 549.20 389.93 548.60 385.45 545.97 382.98 C 530.66 367.61 516.62 350.59 506.88 331.09 C 497.17 313.27 490.02 294.04 485.84 274.18 C 480.36 247.24 480.23 219.23 485.36 192.23 C 493.40 150.80 514.39 112.07 544.52 82.56 C 579.74 48.05 627.32 26.27 676.57 22.87 M 682.58 41.76 C 650.39 44.02 618.74 54.24 591.39 71.40 C 559.84 91.02 534.21 120.04 518.84 153.88 C 501.47 192.02 496.49 235.90 506.26 276.76 C 514.42 312.35 532.37 345.91 558.56 371.47 C 561.67 374.34 566.89 373.54 569.14 369.99 C 607.58 323.82 646.13 277.73 684.49 231.50 C 688.14 227.75 685.77 220.08 679.99 220.74 C 661.96 224.20 644.03 228.26 626.02 231.89 C 622.34 232.56 618.74 233.73 614.99 233.91 C 610.21 234.14 605.52 229.84 605.83 224.95 C 605.82 220.36 609.59 216.53 614.03 215.86 C 648.06 208.22 682.06 200.46 716.10 192.88 C 719.92 191.83 723.65 194.15 726.00 197.00 C 728.76 200.36 727.67 205.00 727.99 208.99 C 728.87 240.33 729.86 271.66 730.69 303.00 C 730.81 308.32 724.96 313.22 719.76 311.17 C 716.32 309.55 713.19 306.09 713.36 302.08 C 712.92 282.01 712.48 261.92 711.93 241.85 C 711.69 239.00 710.65 235.57 707.73 234.45 C 705.47 233.41 702.64 234.17 701.07 236.04 C 661.31 283.59 621.52 331.12 581.74 378.65 C 578.96 381.37 578.98 386.43 582.08 388.87 C 607.22 406.51 636.58 417.88 666.90 422.54 C 707.91 429.05 750.59 422.27 788.30 405.19 C 813.85 391.82 836.92 373.25 854.21 350.08 C 878.78 318.21 892.34 278.20 892.95 238.01 C 893.50 171.28 856.26 106.24 799.73 71.26 C 765.02 49.62 723.42 38.97 682.58 41.76 M 319.11 344.22 C 307.43 345.52 296.34 351.93 290.02 361.92 C 284.38 371.06 282.22 382.45 284.80 392.94 C 287.09 403.84 294.24 413.73 304.24 418.81 C 319.22 427.07 339.23 424.45 351.52 412.53 C 361.45 402.75 365.72 387.41 361.95 373.95 C 360.33 367.21 356.66 361.11 352.00 356.04 C 343.53 347.48 331.11 342.89 319.11 344.22 M 483.41 434.58 C 464.11 437.99 449.63 457.46 451.51 476.88 C 452.52 485.91 456.28 494.71 462.79 501.14 C 472.63 511.73 488.66 515.92 502.45 511.68 C 511.33 509.45 519.02 503.60 524.24 496.17 C 530.19 486.83 532.68 475.01 529.83 464.20 C 527.83 454.53 521.78 445.87 513.62 440.37 C 504.78 434.75 493.71 432.29 483.41 434.58 M 869.20 471.33 C 846.29 482.93 823.64 495.06 800.78 506.77 C 797.09 508.38 794.22 512.77 796.54 516.67 C 820.75 561.68 845.12 606.61 869.36 651.61 C 873.09 658.44 876.43 665.59 881.66 671.45 C 891.07 681.19 904.49 686.76 918.00 686.90 C 927.27 686.56 936.62 683.70 944.00 677.95 C 955.64 669.60 962.28 655.23 962.11 641.02 C 961.89 632.84 959.33 624.84 955.23 617.80 C 929.36 570.00 903.59 522.13 877.71 474.33 C 876.40 471.11 872.22 470.03 869.20 471.33 M 181.48 522.53 C 171.47 524.18 161.91 529.57 156.06 537.96 C 144.87 553.04 146.12 576.07 159.38 589.50 C 166.65 597.38 177.42 601.33 187.99 601.62 C 200.67 601.52 213.72 595.71 220.83 584.94 C 224.72 579.76 226.67 573.42 227.68 567.10 C 229.47 554.32 224.34 540.86 214.73 532.30 C 206.01 524.07 193.24 520.48 181.48 522.53 Z" />
</g>
<g id="#2b4b6eff">
<path fill="#2b4b6e" opacity="1.00" d=" M 26.24 162.30 C 29.44 161.63 33.38 161.59 35.67 164.32 C 38.81 166.96 37.93 171.34 38.07 174.95 C 38.03 434.30 38.07 693.66 38.05 953.01 C 38.12 955.59 38.36 958.67 40.57 960.40 C 42.70 961.90 45.45 961.91 47.95 961.95 C 79.64 961.87 111.34 962.01 143.03 961.88 C 146.75 962.02 150.26 958.93 150.09 955.11 C 150.21 872.40 150.05 789.69 150.17 706.98 C 149.88 702.66 153.62 698.59 158.00 698.78 C 184.31 698.65 210.63 698.72 236.94 698.74 C 241.63 698.21 245.79 702.42 245.39 707.08 C 245.50 789.39 245.39 871.71 245.44 954.03 C 245.53 956.00 245.78 958.22 247.28 959.69 C 249.30 961.70 252.35 961.96 255.05 961.95 C 271.36 961.92 287.67 961.91 303.98 961.95 C 306.83 961.94 309.92 961.99 312.40 960.36 C 314.58 958.63 314.83 955.55 314.89 952.98 C 314.88 831.00 314.87 709.02 314.89 587.04 C 314.27 582.40 318.27 577.83 322.99 578.12 C 349.34 578.05 375.70 578.03 402.06 578.13 C 406.79 577.83 410.72 582.46 410.11 587.08 C 410.15 709.40 410.08 831.73 410.15 954.06 C 409.86 958.09 412.74 961.88 416.97 961.81 C 432.98 962.11 449.01 961.81 465.04 961.95 C 468.13 961.94 471.56 962.14 474.20 960.22 C 476.38 958.59 476.60 955.60 476.64 953.10 C 476.63 854.08 476.61 755.05 476.65 656.02 C 476.15 651.34 480.17 646.82 484.95 647.25 C 511.65 647.20 538.35 647.20 565.05 647.24 C 568.63 646.99 572.21 649.48 573.01 653.02 C 573.57 655.99 573.33 659.04 573.38 662.06 C 573.35 757.71 573.39 853.37 573.36 949.02 C 573.44 952.20 572.95 955.59 574.37 958.57 C 575.85 961.21 579.17 961.87 581.96 961.92 C 597.31 961.95 612.67 961.89 628.02 961.95 C 631.17 961.92 634.61 962.16 637.38 960.38 C 639.58 958.65 639.83 955.55 639.89 952.97 C 639.88 806.00 639.87 659.02 639.89 512.05 C 639.27 507.42 643.24 502.85 647.96 503.12 C 674.30 503.04 700.65 503.05 726.99 503.12 C 731.72 502.82 735.71 507.39 735.11 512.03 C 735.14 650.00 735.11 787.97 735.12 925.94 C 735.25 935.88 734.85 945.85 735.31 955.79 C 735.43 959.80 739.31 962.01 742.97 961.89 C 762.98 962.01 782.99 961.85 803.00 961.96 C 806.41 961.80 809.41 964.23 810.97 967.10 C 812.66 971.20 811.19 976.69 806.95 978.59 C 803.74 979.58 800.31 979.12 797.01 979.22 C 541.36 979.21 285.70 979.22 30.04 979.22 C 26.59 979.49 22.76 978.04 21.41 974.63 C 20.41 971.52 20.85 968.18 20.75 964.98 C 20.78 700.32 20.73 435.67 20.77 171.01 C 20.53 167.33 22.42 163.25 26.24 162.30 M 663.44 520.58 C 661.49 520.80 659.44 521.61 658.48 523.43 C 656.68 526.65 657.25 530.44 657.17 533.97 C 657.21 674.00 657.15 814.04 657.21 954.07 C 656.91 958.09 659.76 961.79 663.94 961.78 C 677.96 962.14 692.00 961.79 706.02 961.95 C 709.36 961.93 713.17 962.15 715.91 959.88 C 718.59 956.52 717.65 951.93 717.82 947.96 C 717.81 809.97 717.81 671.98 717.83 533.99 C 717.72 530.25 718.41 526.07 716.12 522.83 C 714.24 520.38 710.81 520.46 708.04 520.41 C 693.17 520.56 678.29 520.20 663.44 520.58 M 338.49 595.58 C 334.11 595.59 331.96 600.10 332.18 603.95 C 332.20 720.67 332.15 837.38 332.21 954.09 C 331.91 958.12 334.81 961.81 339.00 961.79 C 352.98 962.13 366.99 961.80 380.98 961.95 C 384.33 961.94 388.13 962.15 390.89 959.90 C 392.52 958.03 392.80 955.40 392.83 953.03 C 392.81 838.34 392.81 723.66 392.83 608.97 C 392.73 605.23 393.42 601.04 391.10 597.80 C 389.21 595.39 385.81 595.46 383.05 595.41 C 368.20 595.55 353.33 595.21 338.49 595.58 M 498.17 665.12 C 495.17 666.38 493.77 669.82 493.98 672.93 C 494.02 766.62 493.97 860.31 494.00 954.00 C 493.73 957.70 496.06 961.75 500.12 961.80 C 515.42 962.09 530.75 961.85 546.07 961.92 C 549.34 961.99 553.40 960.65 554.15 957.05 C 555.04 952.43 554.37 947.67 554.56 942.99 C 554.57 852.96 554.57 762.94 554.56 672.91 C 554.51 670.84 554.15 668.66 552.99 666.92 C 551.37 664.80 548.43 664.68 546.00 664.56 C 531.66 664.55 517.33 664.60 503.00 664.55 C 501.37 664.56 499.72 664.58 498.17 665.12 M 173.20 716.28 C 169.50 716.79 167.11 720.40 167.50 724.02 C 167.48 800.35 167.52 876.68 167.48 953.01 C 167.52 955.53 167.64 958.55 169.90 960.18 C 172.79 962.41 176.65 961.86 180.07 961.94 C 193.99 961.82 207.93 962.11 221.84 961.81 C 225.80 961.72 228.51 957.77 228.07 954.02 C 228.03 876.99 228.12 799.96 228.03 722.93 C 228.30 718.62 224.12 715.56 220.07 716.00 C 204.45 716.18 188.78 715.62 173.20 716.28 Z" />
</g>
</svg>
