<?xml version="1.0" encoding="utf-8"?>
<!-- Generator: Adobe Illustrator 17.1.0, SVG Export Plug-In . SVG Version: 6.00 Build 0)  -->
<!DOCTYPE svg PUBLIC "-//W3C//DTD SVG 1.1//EN" "http://www.w3.org/Graphics/SVG/1.1/DTD/svg11.dtd">
<svg xmlns="http://www.w3.org/2000/svg" xmlns:xlink="http://www.w3.org/1999/xlink" version="1.1" id="Layer_1" x="0px" y="0px" width="96px" height="96px" viewBox="0 0 24 24" style="enable-background:new 0 0 24 24;" xml:space="preserve">
<g>
	<path style="fill: #808080;" d="M16.6,13.1c-0.2,0.4-0.4,0.8-0.6,1.2c-0.2,0.4-0.5,0.8-0.7,1.1c0.7-0.1,1.3-0.2,1.9-0.4C17,14.4,16.8,13.8,16.6,13.1z"/>
	<path style="fill: #808080;" d="M8.8,15.4c-0.2-0.4-0.5-0.7-0.7-1.1c-0.2-0.4-0.4-0.8-0.6-1.2C7.2,13.8,7,14.4,6.8,15C7.4,15.1,8.1,15.3,8.8,15.4z"/>
	<path style="fill: #808080;" d="M10,15.5c0.6,0.1,1.3,0.1,2,0.1c0.7,0,1.4,0,2-0.1c0.4-0.5,0.7-1.1,1.1-1.7c0.4-0.6,0.7-1.2,0.9-1.8   c-0.3-0.6-0.6-1.2-0.9-1.8C14.8,9.6,14.4,9,14,8.5c-0.6-0.1-1.3-0.1-2-0.1c-0.7,0-1.4,0-2,0.1C9.6,9,9.2,9.6,8.9,10.2   c-0.4,0.6-0.7,1.2-0.9,1.8c0.3,0.6,0.6,1.2,0.9,1.8C9.2,14.4,9.6,15,10,15.5z M12,10.8c0.6,0,1.2,0.5,1.2,1.2s-0.5,1.2-1.2,1.2   c-0.6,0-1.2-0.5-1.2-1.2S11.4,10.8,12,10.8z"/>
	<path style="fill: #808080;" d="M15.2,8.6c0.2,0.4,0.5,0.7,0.7,1.1c0.2,0.4,0.4,0.8,0.6,1.2c0.3-0.7,0.5-1.3,0.6-1.9C16.6,8.9,15.9,8.7,15.2,8.6z"/>
	<path style="fill: #808080;" d="M8.8,8.6C8.1,8.7,7.4,8.9,6.8,9c0.1,0.6,0.3,1.2,0.6,1.9c0.2-0.4,0.4-0.8,0.6-1.2C8.3,9.3,8.5,9,8.8,8.6z"/>
	<path style="fill: #808080;" d="M12,7.5c0.4,0,0.9,0,1.3,0C12.9,7,12.4,6.5,12,6c-0.4,0.4-0.9,0.9-1.3,1.5C11.1,7.5,11.6,7.5,12,7.5z"/>
	<path style="fill: #808080;" d="M12,0C5.4,0,0,5.4,0,12s5.4,12,12,12c6.6,0,12-5.4,12-12S18.6,0,12,0z M18.2,15.6c0.4,2.4,0.1,4.3-1.2,5.1   c-1.3,0.7-3.1,0.1-5-1.5c-1.9,1.6-3.7,2.2-5,1.5c-1.3-0.7-1.7-2.7-1.2-5.1C3.5,14.8,2,13.5,2,12s1.5-2.8,3.8-3.6   C5.3,6,5.7,4.1,7,3.3c1.3-0.7,3.1-0.1,5,1.5c1.9-1.6,3.7-2.2,5-1.5c1.3,0.7,1.7,2.7,1.2,5.1C20.5,9.2,22,10.5,22,12   S20.5,14.8,18.2,15.6z"/>
	<path style="fill: #808080;" d="M18,9.3c-0.2,0.9-0.5,1.8-0.9,2.7c0.4,0.9,0.7,1.8,0.9,2.7C20,14,21.1,13,21.1,12S20,10,18,9.3z"/>
	<path style="fill: #808080;" d="M17.3,8.1c0.4-2,0-3.5-0.8-4c-0.8-0.5-2.3,0-3.9,1.3c0.6,0.6,1.3,1.3,1.9,2.2C15.5,7.7,16.5,7.9,17.3,8.1z"/>
	<path style="fill: #808080;" d="M14.5,16.4c-0.6,0.8-1.2,1.5-1.9,2.2c1.6,1.3,3,1.8,3.9,1.3c0.8-0.5,1.2-2,0.8-4C16.5,16.1,15.5,16.3,14.5,16.4z"/>
	<path style="fill: #808080;" d="M6.7,15.9c-0.4,2,0,3.5,0.8,4c0.8,0.5,2.3,0,3.9-1.3c-0.6-0.6-1.3-1.3-1.9-2.2C8.5,16.3,7.5,16.1,6.7,15.9z"/>
	<path style="fill: #808080;" d="M12,16.5c-0.4,0-0.9,0-1.3,0c0.4,0.5,0.9,1,1.3,1.5c0.4-0.4,0.9-0.9,1.3-1.5C12.9,16.5,12.4,16.5,12,16.5z"/>
	<path style="fill: #808080;" d="M6,9.3C4,10,2.9,11,2.9,12S4,14,6,14.7c0.2-0.9,0.5-1.8,0.9-2.7C6.5,11.1,6.2,10.2,6,9.3z"/>
	<path style="fill: #808080;" d="M9.5,7.6c0.6-0.8,1.2-1.5,1.9-2.2c-1.6-1.3-3-1.8-3.9-1.3c-0.8,0.5-1.2,2-0.8,4C7.5,7.9,8.5,7.7,9.5,7.6z"/>
</g>
</svg>
