<?xml version="1.0" encoding="UTF-8" ?>
<!DOCTYPE svg PUBLIC "-//W3C//DTD SVG 1.1//EN" "http://www.w3.org/Graphics/SVG/1.1/DTD/svg11.dtd">
<svg width="1000pt" height="1000pt" viewBox="0 0 1000 1000" version="1.1" xmlns="http://www.w3.org/2000/svg">
<g id="#fafafaf1">
</g>
<g id="#2b4b6eff">
<path fill="#2b4b6e" opacity="1.00" d=" M 332.66 100.42 C 433.10 56.67 550.85 54.56 652.87 94.45 C 709.71 116.54 761.74 151.00 804.03 194.92 C 844.47 236.21 876.13 286.08 896.68 340.11 C 916.52 391.91 925.45 447.71 923.77 503.11 C 918.14 495.76 912.35 488.51 906.01 481.77 C 905.31 472.27 905.22 462.66 904.20 453.16 C 900.42 412.30 890.50 371.99 874.79 334.07 C 851.28 277.35 814.58 226.17 768.55 185.56 C 740.85 161.16 709.89 140.44 676.64 124.39 C 638.33 105.82 597.03 93.55 554.87 87.73 C 497.11 79.73 437.69 84.66 381.91 101.57 C 309.97 123.16 244.56 165.59 195.03 221.98 C 167.51 253.32 144.74 288.88 128.05 327.12 C 102.07 386.58 90.50 452.32 94.90 517.08 C 97.90 561.49 108.23 605.41 125.33 646.50 C 140.12 681.95 160.05 715.22 184.19 745.08 C 177.84 769.49 170.88 793.73 164.47 818.12 C 163.34 822.37 167.59 826.64 171.85 825.53 C 196.26 819.20 220.50 812.18 244.93 805.89 C 265.51 822.29 287.51 836.93 310.81 849.19 C 353.63 871.73 400.57 886.44 448.57 892.52 C 454.81 899.62 461.26 906.55 468.28 912.91 C 436.31 910.14 404.54 904.51 373.92 894.81 C 328.12 880.50 284.73 858.43 246.29 829.70 C 243.80 827.83 240.80 825.46 237.50 826.67 C 203.50 835.98 169.42 844.99 135.49 854.51 C 144.97 820.70 154.02 786.76 163.25 752.88 C 164.31 750.28 163.19 747.52 161.57 745.45 C 114.44 682.99 84.83 607.32 77.84 529.33 C 71.05 456.37 83.14 381.57 113.85 314.95 C 156.92 219.66 236.54 141.63 332.66 100.42 Z" />
<path fill="#2b4b6e" opacity="1.00" d=" M 605.56 674.64 C 614.02 672.11 623.47 679.27 623.27 688.06 C 623.85 696.10 615.92 703.42 607.96 702.33 C 599.99 701.96 593.72 693.66 595.32 685.87 C 596.20 680.59 600.46 676.12 605.56 674.64 Z" />
<path fill="#2b4b6e" opacity="1.00" d=" M 674.50 674.67 C 682.94 672.05 692.61 679.13 692.38 688.00 C 692.90 695.66 685.72 702.86 678.07 702.38 C 670.59 702.57 663.71 695.48 664.27 687.99 C 664.12 681.90 668.81 676.40 674.50 674.67 Z" />
<path fill="#2b4b6e" opacity="1.00" d=" M 743.49 674.71 C 751.62 672.17 761.05 678.48 761.44 687.03 C 762.52 695.07 755.08 702.93 747.02 702.37 C 739.63 702.43 732.82 695.41 733.38 687.98 C 733.19 681.90 737.90 676.53 743.49 674.71 Z" />
</g>
<g id="#e17854ff">
<path fill="#e17854" opacity="1.00" d=" M 619.90 423.34 C 657.15 415.07 696.11 414.88 733.47 422.62 C 800.24 436.18 860.96 476.35 900.07 532.08 C 929.58 573.71 947.01 623.86 949.28 674.86 C 952.68 737.94 932.77 801.79 894.69 852.15 C 901.01 876.20 907.83 900.11 914.16 924.16 C 890.12 917.87 866.24 910.86 842.14 904.82 C 808.48 929.84 769.24 947.53 727.91 955.04 C 680.05 964.06 629.77 959.81 584.12 942.79 C 535.86 924.96 493.00 892.96 461.99 851.93 C 422.88 800.76 403.15 735.24 407.56 671.00 C 409.97 631.60 421.24 592.77 440.27 558.18 C 459.74 522.69 487.23 491.63 520.11 468.02 C 549.86 446.53 584.04 431.18 619.90 423.34 M 649.04 438.92 C 608.46 443.48 569.18 458.49 535.63 481.73 C 507.52 501.16 483.41 526.38 465.31 555.37 C 445.13 587.54 432.36 624.36 428.56 662.15 C 424.27 702.58 430.01 744.05 445.18 781.79 C 468.69 840.61 515.27 889.80 572.87 916.22 C 618.04 937.48 669.71 944.17 718.91 936.15 C 762.31 929.24 803.59 910.33 837.58 882.54 C 853.56 886.55 869.35 891.24 885.31 895.32 C 881.30 879.33 876.53 863.53 872.52 847.54 C 901.95 811.65 921.30 767.52 927.25 721.46 C 934.52 667.37 923.72 610.94 896.31 563.67 C 866.13 510.56 815.85 469.29 757.87 450.06 C 723.00 438.41 685.54 434.56 649.04 438.92 Z" />
</g>
</svg>
