<svg xmlns="http://www.w3.org/2000/svg" xmlns:xlink="http://www.w3.org/1999/xlink" version="1.1" x="0px" y="0px" viewBox="0 0 100 100" enable-background="new 0 0 100 100" xml:space="preserve">
    <path d="M67.833,43.709c13.876,0,25.125,11.249,25.125,25.124c0,6.05-2.14,11.6-5.702,15.935l1.306,4.794l-4.795-1.304  c-4.335,3.562-9.884,5.7-15.934,5.7c-13.875,0-25.124-11.249-25.124-25.125C42.709,54.958,53.958,43.709,67.833,43.709   M67.833,41.709c-14.956,0-27.124,12.168-27.124,27.124c0,14.957,12.168,27.125,27.124,27.125c5.912,0,11.688-1.948,16.381-5.506  l3.823,1.039l3.373,0.917l-0.919-3.372l-1.041-3.821c3.559-4.692,5.508-10.47,5.508-16.382  C94.958,53.877,82.79,41.709,67.833,41.709L67.833,41.709z" style="fill: #E17854;"/>
    <circle cx="67.833" cy="68.833" r="2.408" style="fill: #234B5F;"/>
    <circle cx="60.924" cy="68.833" r="2.407" style="fill: #234B5F;"/>
    <circle cx="74.743" cy="68.833" r="2.407" style="fill: #234B5F;"/>
    <path d="M45.163,88.702c-7.74-0.934-14.802-4.071-20.531-8.777L17,82l2.077-7.63C13.406,67.467,10,58.631,10,49  C10,26.908,27.909,9,50,9c21.884,0,39.653,17.577,39.984,39.383c1.055,1.142,2.025,2.363,2.896,3.658C92.951,51.035,93,50.023,93,49  C93,25.29,73.71,6,50,6C26.29,6,7,25.29,7,49c0,9.403,3.109,18.589,8.784,26.043l-1.679,6.169l-1.377,5.059l5.059-1.376l6.172-1.678  c7.057,5.373,15.667,8.44,24.542,8.752C47.306,90.968,46.191,89.874,45.163,88.702z" style="fill: #234B5F;"/>
</svg>