<svg xmlns="http://www.w3.org/2000/svg" xmlns:xlink="http://www.w3.org/1999/xlink" viewBox="0 0 100 100" version="1.1" x="0px" y="0px">
    <title>Machine Learning - Support Vector Machines by Sasha is Sasha. Public Domain. 2017</title>
    <desc>sashaissasha.com</desc>
    <g stroke="none" stroke-width="1" fill="none" fill-rule="evenodd">
        <g fill-rule="nonzero" fill="#000000">
            <path d="M10,15 C7.23857625,15 5,12.7614237 5,10 C5,7.23857625 7.23857625,5 10,5 C12.7614237,5 15,7.23857625 15,10 C15,12.7614237 12.7614237,15 10,15 Z M10,12 C11.1045695,12 12,11.1045695 12,10 C12,8.8954305 11.1045695,8 10,8 C8.8954305,8 8,8.8954305 8,10 C8,11.1045695 8.8954305,12 10,12 Z" style="fill: #234B5F;"></path>

            <path d="M10,75 C7.23857625,75 5,72.7614237 5,70 C5,67.2385763 7.23857625,65 10,65 C12.7614237,65 15,67.2385763 15,70 C15,72.7614237 12.7614237,75 10,75 Z M10,72 C11.1045695,72 12,71.1045695 12,70 C12,68.8954305 11.1045695,68 10,68 C8.8954305,68 8,68.8954305 8,70 C8,71.1045695 8.8954305,72 10,72 Z" style="fill: #234B5F;"></path>

            <path d="M40,45 C37.2385763,45 35,42.7614237 35,40 C35,37.2385763 37.2385763,35 40,35 C42.7614237,35 45,37.2385763 45,40 C45,42.7614237 42.7614237,45 40,45 Z M40,42 C41.1045695,42 42,41.1045695 42,40 C42,38.8954305 41.1045695,38 40,38 C38.8954305,38 38,38.8954305 38,40 C38,41.1045695 38.8954305,42 40,42 Z" style="fill: #234B5F;"></path>

            <path d="M91.8405925,6.03808714 L91.8405925,6.03808714 C91.8450842,6.03359546 91.8496047,6.02913272 91.8541538,6.0246992 C92.4398924,5.45384432 93.3774966,5.46590992 93.9483515,6.05164848 L93.9483515,6.05164848 C94.5287663,6.64719621 94.5226445,7.59867585 93.9346145,8.1867058 L93.9346145,8.1867058 L8.1881078,93.9332125 C7.60196446,94.5193559 6.65194273,94.5203414 6.06458455,93.9354155 L6.06458455,93.9354155 C6.06385101,93.934685 6.06311823,93.9339537 6.0623862,93.9332217 C5.47781262,93.3486481 5.47781262,92.400867 6.0623862,91.8162935 L6.0623862,91.8162935 L91.8405925,6.03808714 Z" style="fill: #E17854;"></path>

            <path d="M60,65 C57.2385763,65 55,62.7614237 55,60 C55,57.2385763 57.2385763,55 60,55 C62.7614237,55 65,57.2385763 65,60 C65,62.7614237 62.7614237,65 60,65 Z M60,62 C61.1045695,62 62,61.1045695 62,60 C62,58.8954305 61.1045695,58 60,58 C58.8954305,58 58,58.8954305 58,60 C58,61.1045695 58.8954305,62 60,62 Z" style="fill: #234B5F;"></path>

            <path d="M90,35 C87.2385763,35 85,32.7614237 85,30 C85,27.2385763 87.2385763,25 90,25 C92.7614237,25 95,27.2385763 95,30 C95,32.7614237 92.7614237,35 90,35 Z M90,32 C91.1045695,32 92,31.1045695 92,30 C92,28.8954305 91.1045695,28 90,28 C88.8954305,28 88,28.8954305 88,30 C88,31.1045695 88.8954305,32 90,32 Z" style="fill: #234B5F;"></path>

            <path d="M90,95 C87.2385763,95 85,92.7614237 85,90 C85,87.2385763 87.2385763,85 90,85 C92.7614237,85 95,87.2385763 95,90 C95,92.7614237 92.7614237,95 90,95 Z M90,92 C91.1045695,92 92,91.1045695 92,90 C92,88.8954305 91.1045695,88 90,88 C88.8954305,88 88,88.8954305 88,90 C88,91.1045695 88.8954305,92 90,92 Z" style="fill: #234B5F;"></path>
        </g>
    </g>
</svg>