<?xml version="1.0" encoding="UTF-8" ?>
<!DOCTYPE svg PUBLIC "-//W3C//DTD SVG 1.1//EN" "http://www.w3.org/Graphics/SVG/1.1/DTD/svg11.dtd">
<svg width="1000pt" height="1000pt" viewBox="0 0 1000 1000" version="1.1" xmlns="http://www.w3.org/2000/svg">
<g id="#f5f5f5e2">
</g>
<g id="#2b4b6eff">
<path fill="#2b4b6e" opacity="1.00" d=" M 91.55 56.79 C 100.43 55.29 109.90 55.93 118.08 59.91 C 130.05 65.28 139.28 76.26 142.65 88.93 C 144.98 98.80 144.31 109.58 139.77 118.74 C 134.16 130.69 122.94 139.82 110.10 142.88 C 100.73 144.82 90.58 144.28 81.88 140.06 C 69.38 134.41 59.78 122.65 56.93 109.21 C 55.24 100.14 55.83 90.39 59.87 82.00 C 65.61 69.21 77.77 59.43 91.55 56.79 M 94.52 74.69 C 80.79 77.05 71.29 92.10 74.70 105.52 C 76.53 115.08 84.31 123.10 93.84 125.14 C 100.80 127.07 108.54 125.50 114.49 121.51 C 121.49 117.24 125.38 109.11 125.99 101.11 C 126.20 93.91 123.38 86.77 118.46 81.53 C 112.17 75.67 102.99 72.57 94.52 74.69 Z" />
<path fill="#2b4b6e" opacity="1.00" d=" M 891.48 256.80 C 900.37 255.28 909.87 255.92 918.06 259.90 C 930.03 265.27 939.27 276.25 942.64 288.92 C 944.98 298.77 944.31 309.54 939.79 318.70 C 935.37 328.08 927.52 335.81 918.07 340.09 C 909.43 344.24 899.38 344.82 890.08 342.91 C 876.92 339.83 865.43 330.37 859.89 318.04 C 855.94 309.87 855.28 300.41 856.78 291.56 C 859.99 274.42 874.38 260.06 891.48 256.80 M 894.50 274.70 C 880.77 277.07 871.29 292.12 874.70 305.52 C 876.53 315.06 884.29 323.07 893.79 325.13 C 900.75 327.07 908.48 325.52 914.45 321.54 C 921.48 317.27 925.40 309.09 926.00 301.06 C 926.18 293.88 923.37 286.76 918.47 281.54 C 912.18 275.67 902.97 272.56 894.50 274.70 Z" />
<path fill="#2b4b6e" opacity="1.00" d=" M 391.54 356.79 C 400.42 355.28 409.91 355.93 418.10 359.92 C 430.06 365.29 439.28 376.27 442.65 388.93 C 445.04 399.03 444.26 410.09 439.45 419.39 C 433.91 430.73 423.27 439.38 411.09 442.65 C 403.72 444.41 395.91 444.41 388.55 442.55 C 376.27 439.12 365.58 430.23 360.18 418.65 C 355.99 410.33 355.23 400.60 356.79 391.50 C 360.02 374.38 374.43 360.03 391.54 356.79 M 394.49 374.70 C 380.79 377.07 371.31 392.09 374.69 405.48 C 376.51 415.06 384.30 423.10 393.85 425.15 C 400.79 427.07 408.49 425.51 414.44 421.55 C 421.48 417.27 425.40 409.09 426.00 401.05 C 426.18 393.88 423.37 386.77 418.48 381.54 C 412.18 375.67 402.97 372.56 394.49 374.70 Z" />
<path fill="#2b4b6e" opacity="1.00" d=" M 591.51 556.79 C 600.40 555.28 609.90 555.93 618.09 559.92 C 630.07 565.30 639.30 576.29 642.66 588.97 C 645.04 599.06 644.25 610.09 639.46 619.38 C 633.90 630.74 623.25 639.41 611.04 642.66 C 603.67 644.41 595.86 644.40 588.51 642.53 C 576.05 639.05 565.26 629.94 559.94 618.13 C 555.95 609.94 555.28 600.45 556.78 591.57 C 559.98 574.42 574.39 560.05 591.51 556.79 M 594.56 574.68 C 580.84 577.02 571.33 592.02 574.68 605.43 C 576.48 615.01 584.25 623.07 593.79 625.13 C 600.75 627.07 608.48 625.52 614.45 621.54 C 621.49 617.27 625.40 609.07 626.00 601.03 C 626.18 593.87 623.37 586.76 618.48 581.54 C 612.20 575.69 603.02 572.57 594.56 574.68 Z" />
<path fill="#2b4b6e" opacity="1.00" d=" M 91.46 656.80 C 100.37 655.28 109.89 655.92 118.10 659.92 C 130.06 665.29 139.28 676.27 142.64 688.92 C 144.92 698.55 144.35 709.05 140.09 718.07 C 135.70 727.73 127.73 735.73 118.06 740.10 C 109.42 744.24 99.37 744.82 90.08 742.91 C 76.94 739.84 65.46 730.39 59.91 718.08 C 55.95 709.91 55.28 700.45 56.78 691.59 C 59.97 674.45 74.36 660.08 91.46 656.80 M 94.50 674.70 C 80.78 677.07 71.30 692.11 74.70 705.51 C 76.53 715.07 84.31 723.10 93.83 725.14 C 100.79 727.07 108.51 725.50 114.47 721.53 C 121.49 717.25 125.40 709.07 126.00 701.05 C 126.18 693.87 123.36 686.74 118.45 681.52 C 112.16 675.67 102.97 672.56 94.50 674.70 Z" />
<path fill="#2b4b6e" opacity="1.00" d=" M 891.55 856.79 C 900.18 855.33 909.40 855.88 917.42 859.61 C 927.16 863.83 935.26 871.68 939.79 881.28 C 944.39 890.53 945.02 901.49 942.51 911.43 C 937.70 929.73 920.06 943.97 901.00 943.94 C 883.94 944.70 867.36 934.06 860.21 918.70 C 855.89 910.14 855.17 900.11 856.93 890.79 C 860.43 873.97 874.66 859.98 891.55 856.79 M 894.50 874.70 C 880.79 877.06 871.30 892.09 874.70 905.50 C 876.52 915.05 884.28 923.08 893.80 925.13 C 900.75 927.07 908.48 925.51 914.45 921.54 C 921.47 917.27 925.39 909.11 925.99 901.09 C 926.20 893.90 923.37 886.78 918.48 881.54 C 912.18 875.68 902.98 872.56 894.50 874.70 Z" />
</g>
<g id="#e17854ff">
<path fill="#e17854" opacity="1.00" d=" M 926.28 62.38 C 932.13 60.40 938.59 66.08 937.69 72.08 C 937.42 76.10 933.98 78.76 931.39 81.44 C 647.03 365.76 362.72 650.13 78.36 934.44 C 76.60 936.07 74.49 937.63 71.98 937.66 C 66.69 938.32 61.63 933.26 62.32 927.96 C 62.55 923.66 66.40 920.97 69.11 918.10 C 353.44 633.76 637.80 349.43 922.13 65.07 C 923.31 63.92 924.69 62.92 926.28 62.38 Z" />
</g>
</svg>
